<svg width="100%" height="100%" viewBox="0 0 48 48" fill="none" xmlns="http://www.w3.org/2000/svg">
<circle cx="24" cy="24" r="23.5" fill="#CBB352" stroke="black"/>
<path d="M10.9625 7.00686C10.8861 7.08335 10.8834 7.09654 10.9203 7.24952C10.952 7.38404 11.0099 7.42888 11.1338 7.40778C11.2497 7.38668 11.2998 7.43679 11.2208 7.48955C11.1944 7.50801 11.1575 7.53439 11.1417 7.54758C11.1259 7.56077 11.0916 7.69792 11.0653 7.85354C11.0099 8.18589 11.0205 8.78464 11.089 9.03785C11.1127 9.12226 11.1312 9.25942 11.1312 9.34382C11.1312 9.42823 11.1417 9.53109 11.1549 9.5733C11.168 9.6155 11.1865 9.71573 11.1944 9.7975C11.2023 9.87663 11.2155 9.96631 11.226 9.99532C11.2392 10.0322 11.226 10.0243 11.176 9.97158C11.1312 9.92674 11.0864 9.903 11.0574 9.90828C11.0336 9.91619 10.9309 9.93729 10.8281 9.95312C10.6463 9.98477 10.5883 10.0164 10.2431 10.2433C10.0059 10.4015 9.18102 11.2508 9.18102 11.3353C9.18102 11.3643 9.00709 11.6307 8.9781 11.6491C8.92803 11.6808 8.87005 11.8021 8.80944 12.0026C8.75147 12.1872 8.75147 12.2479 8.80681 12.8677C8.83053 13.1104 8.88323 13.4032 8.94648 13.6089C8.95966 13.6537 8.9702 13.7065 8.9702 13.7302C8.9702 13.7935 9.25481 14.329 9.38658 14.5084C9.4182 14.5532 9.44455 14.6007 9.44455 14.6139C9.44455 14.6613 10.2404 15.4157 10.4539 15.5687C10.5698 15.6531 11.2761 15.8087 11.7294 15.8483C11.8822 15.8641 11.9534 15.8562 12.0983 15.8114C12.1958 15.7797 12.3434 15.7349 12.4225 15.7111C12.5911 15.661 12.7598 15.5819 12.823 15.5265C12.8731 15.4816 12.881 15.4869 13.2473 15.7243C13.6769 16.0039 13.8824 16.5156 14.0458 17.6946C14.0827 17.969 14.1196 18.2248 14.1249 18.2617C14.1328 18.2987 14.138 18.6468 14.138 19.0398C14.138 19.781 14.1011 20.3165 14.0063 20.9258C13.9773 21.1078 13.9404 21.5113 13.9272 21.8226C13.9114 22.1338 13.8877 22.4609 13.8745 22.5479C13.8297 22.8222 13.7875 23.1467 13.7638 23.3788C13.7348 23.6663 13.7032 23.8588 13.6373 24.1701C13.6057 24.3072 13.582 24.4576 13.582 24.5051C13.582 24.5499 13.5688 24.6211 13.553 24.6633C13.5372 24.7029 13.5214 24.7662 13.5161 24.8031C13.4845 25.022 13.3659 25.5338 13.3211 25.6393C13.2921 25.7105 13.2578 25.8239 13.242 25.8977C13.1261 26.507 12.9074 27.1665 12.6175 27.7758C12.5542 27.9076 12.4962 28.0501 12.4857 28.0896C12.4752 28.1318 12.4462 28.2004 12.4225 28.2453C12.3961 28.2875 12.3381 28.4431 12.2907 28.5882C12.2433 28.7332 12.1932 28.873 12.18 28.8968C12.1695 28.9231 12.1589 28.968 12.1589 28.997C12.1589 29.026 12.1352 29.0999 12.1089 29.1632C12.0799 29.2238 12.0509 29.3135 12.043 29.3583C12.0061 29.5694 11.9903 29.6195 11.9586 29.6722C11.9191 29.7303 11.8822 29.8859 11.8401 30.1444C11.8269 30.2314 11.8005 30.3501 11.7794 30.4081C11.7584 30.4662 11.7215 30.6508 11.6977 30.817C11.674 30.9831 11.6371 31.1968 11.616 31.2918C11.595 31.3867 11.566 31.6004 11.5502 31.7665C11.5001 32.3442 11.479 32.5183 11.4342 32.7557C11.3736 33.0906 11.3789 33.4942 11.4474 33.7553C11.5291 34.0666 11.7215 34.5018 11.8901 34.7655C11.9745 34.8922 12.0588 35.0319 12.0799 35.0715C12.0983 35.1111 12.1563 35.1902 12.2037 35.2482C12.2512 35.3036 12.2907 35.3617 12.2907 35.3748C12.2907 35.388 12.3118 35.417 12.3355 35.4355C12.3592 35.4566 12.4277 35.5489 12.491 35.6439C12.6807 35.9393 13.2078 36.4114 13.4634 36.5196C13.5214 36.5433 13.6927 36.604 13.8455 36.6541C13.9984 36.7016 14.3067 36.8097 14.5307 36.8941C14.7547 36.9759 15.0472 37.0629 15.1764 37.0867C15.461 37.1394 15.9169 37.1605 16.0381 37.1262C16.162 37.092 17.2662 37.1632 17.6404 37.2291C17.7352 37.2449 17.8723 37.2581 17.9434 37.2555C18.0778 37.2502 18.3651 37.2924 18.4837 37.3346C18.5206 37.3478 18.6523 37.3663 18.7736 37.3715C18.8974 37.3795 19.0503 37.3874 19.1161 37.3926C19.298 37.4058 20.1861 37.361 20.3943 37.332C20.6973 37.2845 21.3614 37.2502 21.8832 37.2502C22.3945 37.2502 23.0269 37.2054 23.1482 37.1579C23.1693 37.1473 23.4539 37.1315 23.7806 37.121C24.1074 37.1078 24.4289 37.0867 24.4948 37.0709C24.5633 37.055 24.8479 37.0366 25.1273 37.0313C25.8309 37.0128 26.1155 36.9706 27.0221 36.7464C27.1459 36.7174 27.3541 36.6752 27.4833 36.6541C27.615 36.6356 27.7863 36.5987 27.8654 36.575C27.9444 36.5512 28.0525 36.5249 28.1026 36.5143C28.5031 36.4299 28.6085 36.4088 28.7456 36.3956C28.8299 36.3877 28.909 36.3772 28.9169 36.3719C28.9248 36.3666 29.0091 36.3534 29.104 36.3455C29.1988 36.3349 29.3701 36.3112 29.4861 36.2875C30.0527 36.1767 30.6509 36.1187 31.3703 36.0976C31.8605 36.0844 32.9673 36.1345 33.4259 36.1872C34.0821 36.2664 34.675 36.3112 35.9821 36.3772C36.6831 36.4141 37.8822 36.3323 38.2248 36.2242C38.3065 36.1978 38.4409 36.1688 38.5278 36.1582C38.6122 36.1477 38.7255 36.1292 38.7756 36.1134C38.8494 36.0923 39.1972 35.9446 39.3817 35.8575C39.4028 35.847 39.4318 35.8127 39.4476 35.781C39.4607 35.7494 39.524 35.7019 39.5872 35.6782C39.7006 35.636 39.9087 35.4329 39.9087 35.3643C39.9087 35.3458 40.0379 35.1902 40.1934 35.0188C40.4753 34.7102 40.6783 34.4411 40.7758 34.2486C40.8048 34.1958 40.8443 34.1351 40.868 34.1167C40.8891 34.0982 40.9392 33.998 40.9787 33.8951C41.0498 33.7078 41.1263 33.539 41.229 33.3438C41.2554 33.2911 41.2791 33.2225 41.2791 33.1961C41.2791 33.1671 41.2976 33.0985 41.3213 33.0432C41.3555 32.9614 41.3687 32.8321 41.374 32.4418C41.3793 31.9907 41.3766 31.9327 41.3292 31.843C41.3028 31.7876 41.2791 31.727 41.2791 31.7059C41.2791 31.6874 41.2343 31.5476 41.179 31.3946C41.0288 30.9831 40.7916 30.5822 40.5122 30.2657C40.3831 30.118 40.2672 29.9993 40.2566 29.9993C40.2461 29.9993 40.2039 29.9676 40.1617 29.9281C39.9931 29.7725 39.7006 29.5694 39.5266 29.4876C39.184 29.3241 38.6069 29.1632 37.9981 29.0603C37.6503 29.0023 37.6556 29.0023 37.7083 28.9442C37.7531 28.8941 37.7531 28.8888 37.6793 28.7965C37.587 28.6831 37.4579 28.4457 37.4579 28.3903C37.4579 28.3692 37.4131 28.2162 37.3551 28.0474C37.2181 27.6333 37.1707 27.4487 37.1259 27.1243C37.0837 26.8104 37.0811 26.7919 37.0389 26.3198C37.0231 26.1299 36.9862 25.758 36.9598 25.4889C36.8966 24.8875 36.8808 23.8799 36.9229 23.0755C36.9414 22.7563 36.9598 22.4767 36.9677 22.4556C36.9783 22.4345 36.9941 22.1549 37.0099 21.8358C37.0363 21.2291 37.1048 20.3086 37.1311 20.24C37.168 20.1397 37.2023 19.3194 37.2102 18.42C37.2155 17.5918 37.2076 17.3649 37.1654 17.022C37.0969 16.4391 37.089 16.3864 37.0652 16.2835C37.0521 16.2334 37.0415 16.1727 37.0389 16.1516C37.0336 16.0778 36.9308 15.3471 36.9071 15.2152C36.886 15.0992 36.8544 14.9805 36.7411 14.5954C36.7279 14.5453 36.6937 14.4609 36.6673 14.4108C36.5962 14.2736 36.5092 14.0494 36.5092 14.0072C36.5092 13.9571 36.2378 13.2845 36.0955 12.9864C35.9742 12.7253 35.8187 12.4747 35.6369 12.24C35.5763 12.1635 35.4867 12.0448 35.4366 11.9762C35.3391 11.8443 34.733 11.2719 34.6882 11.2719C34.675 11.2719 34.6645 11.2535 34.6645 11.2324C34.6645 11.2086 34.6197 11.1717 34.567 11.1506C34.5116 11.1269 34.4457 11.0979 34.4194 11.0847C34.3904 11.0688 34.3535 11.0715 34.3193 11.0899C34.2718 11.1137 34.2665 11.1374 34.2745 11.264L34.2824 11.4117L34.1585 11.4988L34.0346 11.5858L33.8291 11.3933C33.7158 11.2851 33.5893 11.148 33.5445 11.0873C33.5023 11.0266 33.4338 10.9396 33.3943 10.8948C33.3521 10.8499 33.3205 10.8024 33.3205 10.7919C33.3205 10.7813 33.2915 10.7576 33.2546 10.7365C33.1913 10.7048 33.0569 10.5387 32.9225 10.3277C32.8909 10.2828 32.8567 10.2433 32.8435 10.2433C32.8303 10.2433 32.7776 10.1509 32.7249 10.0402C32.6168 9.80013 32.5562 9.72892 32.4297 9.68672C32.3507 9.66034 32.3243 9.66562 32.2374 9.71309C32.1636 9.7553 32.0977 9.76848 31.9712 9.76585C31.879 9.76585 31.7235 9.7764 31.6207 9.79222C31.5206 9.80805 31.2649 9.83179 31.0541 9.84761C30.8433 9.86344 30.5534 9.88718 30.4085 9.903C30.2635 9.91619 30.1107 9.93202 30.0659 9.93729C30.0237 9.94257 29.8629 9.96103 29.7101 9.9795C29.5177 10.0006 29.2199 10.0059 28.735 9.99532C28.3503 9.98741 27.6994 9.97422 27.2856 9.96631C26.4397 9.95048 25.8678 9.92938 25.7308 9.91355C25.6807 9.90828 25.3434 9.88982 24.9797 9.87399C24.1549 9.83706 23.9361 9.82124 23.8808 9.79222C23.8571 9.77903 23.7622 9.76848 23.67 9.76848C23.496 9.76584 23.0928 9.70518 22.6606 9.6155C22.5895 9.59967 22.4393 9.57593 22.3312 9.55747C22.2232 9.54164 22.0677 9.50999 21.9886 9.49153C21.9096 9.47043 21.7383 9.44141 21.6065 9.42559C21.4774 9.40976 21.198 9.37283 20.9872 9.34382C20.5313 9.27788 20.3626 9.25414 20.0649 9.21985C19.941 9.20402 19.7513 9.1671 19.6432 9.13545C19.5352 9.10116 19.377 9.0695 19.2953 9.05895C19.211 9.0484 19.1293 9.0273 19.1109 9.00884C19.0661 8.964 19.0002 8.96927 18.9238 9.02994L18.8579 9.08269L18.6444 8.93762C18.4652 8.81629 18.2676 8.70287 17.759 8.43119C17.73 8.41537 17.5639 8.33096 17.39 8.24392C17.2161 8.15687 17.0053 8.04346 16.9183 7.99334C16.834 7.94059 16.7206 7.8852 16.6679 7.86937C16.5652 7.83772 16.5414 7.82717 16.3095 7.7243C16.0987 7.62934 15.793 7.59242 15.685 7.64781C15.6138 7.68474 15.598 7.6821 15.432 7.61616C15.3345 7.57923 15.2159 7.52384 15.1711 7.49482C15.1236 7.46581 15.063 7.44998 15.0367 7.4579C15.0103 7.46845 14.8917 7.44471 14.7758 7.41042C14.5729 7.34975 14.1644 7.2548 13.8982 7.20732C13.8323 7.19677 13.7217 7.17567 13.6479 7.16248C13.3079 7.09654 12.9205 7.07016 12.3566 7.0728C11.7847 7.07544 11.6292 7.06489 11.342 6.99895C11.0626 6.93564 11.0336 6.93564 10.9625 7.00686ZM11.8506 7.35503C11.9639 7.37613 12.1062 7.39459 12.1642 7.39459C12.2222 7.39459 12.4198 7.42361 12.6017 7.4579C12.7861 7.49219 13.1076 7.5423 13.3185 7.56604C13.5293 7.59242 13.8086 7.63462 13.9378 7.661C14.1565 7.70847 14.2171 7.7243 14.3594 7.77969C14.3884 7.79024 14.478 7.81398 14.5571 7.83244C14.6994 7.8641 14.9286 7.95378 15.2212 8.09093C15.4452 8.19644 15.7324 8.39426 15.9485 8.59209C16.1409 8.76617 16.2516 8.82157 16.3016 8.77145C16.3174 8.75562 16.3333 8.67122 16.3359 8.58154C16.3385 8.49449 16.3491 8.41273 16.3596 8.40482C16.3886 8.37316 16.3754 8.29403 16.3306 8.24919C16.2885 8.20699 16.2885 8.20699 16.3491 8.22545C16.386 8.236 16.5046 8.29667 16.6126 8.3547C16.7206 8.41537 16.8709 8.48658 16.942 8.51296C17.253 8.63165 17.9856 9.05104 18.2781 9.27788C18.3598 9.34118 18.5496 9.46252 18.6945 9.54692C18.8421 9.63396 19.0503 9.76848 19.1557 9.85289C19.2611 9.93466 19.4113 10.0454 19.4877 10.1008C19.5668 10.1562 19.6801 10.2459 19.7407 10.2987C19.8013 10.354 19.9146 10.4358 19.9937 10.4806C20.2335 10.6152 21.1743 11.512 21.3746 11.7942C21.4299 11.8733 21.5195 11.9868 21.5723 12.0448C21.6882 12.1767 21.7172 12.1635 21.7778 11.9498C21.8094 11.8496 21.8331 11.81 21.8727 11.8048C21.9359 11.7942 22.2311 11.9208 22.6896 12.1476C23.4934 12.5512 23.8861 12.8229 24.3341 13.2739C24.5317 13.4718 24.7373 13.6722 24.7952 13.7223C24.8532 13.7724 24.9323 13.8568 24.9692 13.907C25.0087 13.9597 25.0904 14.0547 25.1536 14.1206C25.2143 14.1866 25.2986 14.2868 25.3407 14.3448C25.3803 14.4028 25.4672 14.5163 25.5331 14.5954C25.7888 14.9066 26.0997 15.3972 26.1551 15.574C26.1709 15.6294 26.213 15.6874 26.2473 15.7058C26.2816 15.7243 26.3158 15.7586 26.3237 15.7823C26.3316 15.8061 26.3791 15.8958 26.4318 15.9828C26.7164 16.4523 27.2593 17.5601 27.3778 17.9083C27.4174 18.0243 27.4912 18.2143 27.5386 18.3356C27.5887 18.4543 27.6282 18.5862 27.6282 18.6284C27.6282 18.6758 27.6546 18.7312 27.7046 18.7787C27.8127 18.8895 28.0551 19.5806 28.034 19.7151C28.0261 19.7573 28.0472 19.8048 28.0894 19.8522C28.1605 19.9314 28.2264 19.9314 28.3186 19.8522C28.345 19.8285 28.3845 19.818 28.4083 19.8285C28.5084 19.8681 28.6481 19.5885 28.5769 19.4882C28.5664 19.4724 28.5374 19.3748 28.5137 19.272C28.4899 19.1664 28.4399 19.0108 28.403 18.9291C28.3371 18.7814 28.1816 18.391 28.1816 18.3725C28.1816 18.362 28.316 18.4833 28.4241 18.5914C28.54 18.7075 28.8194 19.0504 28.8958 19.1717C28.9342 19.2282 29.0101 19.3471 29.07 19.4409C29.0717 19.4435 29.0733 19.4461 29.075 19.4487C29.1356 19.5436 29.2436 19.7388 29.3148 19.8839C29.4439 20.1477 29.6864 20.8308 29.689 20.9363C29.689 20.968 29.7154 21.0735 29.7444 21.1763C29.7733 21.2766 29.805 21.4137 29.8155 21.4797C29.8471 21.6801 29.9209 22.0125 29.9763 22.1892C30.029 22.3686 30.1845 23.1124 30.1845 23.1941C30.1845 23.2759 30.2872 23.326 30.4533 23.326C30.5349 23.326 30.6087 23.3155 30.6166 23.3023C30.6245 23.2891 30.7115 23.2706 30.809 23.2627C30.9092 23.2522 31.0172 23.2337 31.0541 23.2205C31.091 23.2073 31.1806 23.1942 31.257 23.1862L31.3941 23.1757L31.3361 23.2575C31.3045 23.2997 31.2307 23.3867 31.1727 23.45C31.0857 23.5423 31.0462 23.5634 30.9724 23.5634C30.8986 23.5634 30.867 23.5819 30.8196 23.6426C30.7458 23.7454 30.7563 23.7982 30.8644 23.8615C30.9592 23.9169 31.0198 23.9274 31.344 23.9485C31.5943 23.967 31.6418 23.9881 31.6181 24.083C31.597 24.1674 31.6655 24.2413 31.7867 24.2624C31.8421 24.273 31.929 24.3204 31.9896 24.3705C32.0898 24.4602 32.0924 24.4655 32.045 24.5024C32.016 24.5235 31.9765 24.5394 31.958 24.5394C31.9 24.5394 31.763 24.6158 31.6418 24.7161C31.5812 24.7636 31.4916 24.8189 31.4441 24.8348C31.3387 24.8717 31.1595 25.0062 31.1595 25.0511C31.1595 25.0695 31.1253 25.1091 31.0831 25.1407C31.0357 25.175 31.0014 25.2304 30.9909 25.2858C30.983 25.3333 30.9592 25.394 30.9408 25.4203C30.9118 25.4625 30.8986 25.452 30.8169 25.328C30.7669 25.2515 30.7168 25.1671 30.7062 25.1407C30.6904 25.1012 30.4058 24.6554 30.2503 24.4233C30.2213 24.3811 30.1502 24.2756 30.0922 24.1859C30.0342 24.0962 29.9341 23.9538 29.8682 23.8694C29.8023 23.785 29.6732 23.6109 29.5783 23.4843C29.4835 23.355 29.299 23.1124 29.1699 22.9383C29.0381 22.7668 28.8905 22.5585 28.8404 22.4767C28.7904 22.3923 28.7324 22.3184 28.7087 22.3105C28.6771 22.3 28.3661 21.8648 28.1948 21.5905C28.1816 21.5667 28.1026 21.4586 28.0235 21.3478C27.8944 21.1737 27.3172 20.3217 27.0827 19.963C27.0353 19.8892 26.9641 19.7916 26.9246 19.7415C26.885 19.6913 26.8139 19.5938 26.7665 19.5252C26.6927 19.4091 26.5451 19.2139 26.3922 19.0267C26.2763 18.8842 26.1577 18.7207 26.1208 18.6442C26.0971 18.5994 25.9969 18.4859 25.8994 18.3883C25.7993 18.2907 25.6517 18.1246 25.5727 18.0217C25.4936 17.9188 25.3328 17.7316 25.2169 17.605C25.1009 17.4784 24.898 17.2542 24.7663 17.1091C24.6345 16.9614 24.4579 16.7846 24.3736 16.7134C24.2102 16.5789 24.1496 16.5182 23.4143 15.7771C23.1613 15.5186 22.9347 15.3023 22.9136 15.2944C22.8899 15.2865 22.8425 15.239 22.8082 15.1889C22.7766 15.1388 22.5763 14.9277 22.3708 14.7194C22.0782 14.4239 21.9939 14.3264 22.0044 14.2868C22.015 14.2472 21.9992 14.2261 21.9438 14.2024C21.9043 14.1866 21.7093 13.9993 21.5143 13.7856C21.3193 13.5746 21.0768 13.3399 20.974 13.2634C20.8739 13.1869 20.7316 13.0682 20.6578 13.0022C20.5866 12.9337 20.4628 12.8414 20.3837 12.7965C20.3047 12.7517 20.1861 12.6673 20.1176 12.6066C20.049 12.5459 19.941 12.4589 19.8777 12.4114C19.8145 12.3639 19.6801 12.2637 19.58 12.1872C19.4825 12.1107 19.3454 12.0158 19.2769 11.9762C19.211 11.934 19.1214 11.8681 19.0766 11.8285C19.0344 11.7889 18.9528 11.723 18.8948 11.6781C18.6497 11.4935 18.5074 11.3827 18.3756 11.2772C18.2966 11.2139 18.1938 11.1295 18.1437 11.0926C18.0936 11.053 17.9856 10.9686 17.9039 10.9027C17.8222 10.8367 17.7115 10.755 17.6588 10.718C17.6061 10.6811 17.5613 10.6442 17.5613 10.631C17.5613 10.6204 17.5455 10.6125 17.5297 10.6125C17.5112 10.6125 17.4058 10.5413 17.2978 10.4543C17.1897 10.3672 17.0342 10.267 16.9552 10.2274C16.6152 10.0665 15.851 9.59704 15.6507 9.42559C15.6217 9.40185 15.5453 9.35173 15.4794 9.31217C15.4135 9.27524 15.2501 9.14863 15.1157 9.02994C14.8443 8.78991 14.7916 8.77672 14.7099 8.92707C14.6836 8.97191 14.6625 9.01675 14.6625 9.02994C14.6625 9.04049 14.7257 9.09324 14.8021 9.14336C14.8759 9.19347 14.9813 9.27524 15.0314 9.32008C15.0808 9.36693 15.1713 9.43689 15.2294 9.48182L15.2317 9.48362C15.2923 9.52582 15.3556 9.58912 15.374 9.62605C15.4188 9.70518 15.6533 9.91092 15.8747 10.0613C15.9696 10.1246 16.1461 10.2564 16.27 10.3567C16.465 10.5149 16.6548 10.6495 17.029 10.9027C17.1449 10.9792 17.5191 11.2113 17.7089 11.3247C17.78 11.3669 17.9408 11.4882 18.0647 11.5911C18.1859 11.6966 18.3862 11.847 18.51 11.9261C19.1636 12.3507 19.2743 12.4404 20.0649 13.1974C21.2165 14.3 22.0782 15.2073 22.4524 15.7058C22.5236 15.8034 22.7423 16.0567 22.9426 16.2729C23.1403 16.4892 23.3959 16.7846 23.5118 16.9297C23.6278 17.0748 23.7912 17.27 23.8729 17.3649C23.9572 17.4599 24.0468 17.5707 24.0732 17.6155C24.118 17.6867 24.2313 17.8186 24.5475 18.1668C24.6134 18.2406 24.7478 18.4068 24.8479 18.5387C24.9481 18.6679 25.064 18.8183 25.1088 18.871C25.1536 18.9238 25.2274 19.0187 25.2696 19.0794C25.3144 19.1427 25.404 19.2588 25.4751 19.3379C25.5437 19.4197 25.6412 19.5436 25.6912 19.6175C25.7413 19.6913 25.8177 19.7995 25.8599 19.8575C25.9021 19.9155 26.1103 20.2189 26.3237 20.5301C26.5345 20.8414 26.8033 21.2159 26.9167 21.361C27.1275 21.6274 27.5149 22.1628 27.7257 22.482C27.7863 22.5769 27.8733 22.7009 27.9154 22.7589C27.955 22.817 28.0709 22.9937 28.1684 23.1546C28.2659 23.3128 28.4082 23.5397 28.482 23.6557C28.5529 23.7633 28.6486 23.9139 28.7063 24.0046C28.7108 24.0118 28.7152 24.0186 28.7192 24.025C28.7746 24.1121 28.8589 24.2307 28.9063 24.2888C28.9511 24.3468 29.0539 24.4945 29.1303 24.6185C29.2068 24.7425 29.3201 24.906 29.378 24.9851C29.4387 25.0616 29.4993 25.146 29.5124 25.1698C29.5283 25.1935 29.5704 25.2542 29.6126 25.3069C29.6521 25.3597 29.6837 25.4151 29.6837 25.4282C29.6837 25.4441 29.7075 25.4757 29.7391 25.5047C29.7707 25.5311 29.8129 25.5891 29.834 25.634C29.8577 25.6762 29.884 25.7184 29.8919 25.7263C29.8998 25.7342 29.942 25.8054 29.9815 25.8846C30.0527 26.0191 30.1476 26.18 30.3557 26.5044C30.4032 26.5756 30.477 26.6943 30.5244 26.7655C30.5692 26.8394 30.6035 26.9106 30.5982 26.9238C30.5797 26.9765 30.3716 27.0741 30.2398 27.09C30.1397 27.1005 30.0896 27.0952 30.0421 27.061C30.0053 27.0372 29.9578 27.0187 29.9394 27.0187C29.9183 27.0187 29.7523 26.9475 29.5704 26.8605C29.3886 26.7734 29.2173 26.7022 29.1883 26.7022C29.1593 26.7022 29.0065 26.66 28.8483 26.6073C28.6085 26.5281 28.5163 26.5097 28.2528 26.4991C28.0367 26.4886 27.9497 26.4754 27.9682 26.4569C28.013 26.4121 28.0024 26.3119 27.9444 26.2538C27.9154 26.2248 27.8917 26.1773 27.8917 26.1483C27.8917 26.0534 27.731 25.9953 27.2619 25.9188C27.1249 25.8977 26.9852 25.8687 26.9509 25.8555C26.8798 25.8292 26.8719 25.7474 26.9298 25.6472C27.0194 25.4889 27.0511 25.3966 27.0273 25.3597C27.0038 25.3203 26.9906 25.3201 25.7545 25.2968C25.7466 25.2967 25.7387 25.2965 25.7308 25.2964C25.4014 25.2911 25.2564 25.2621 25.2564 25.204C25.2564 25.1935 25.317 25.1434 25.3908 25.0959C25.5437 24.9904 25.57 24.9535 25.5516 24.8638C25.5358 24.7767 25.462 24.7345 25.2301 24.6844C24.9613 24.6238 24.7135 24.5446 24.5712 24.4734C24.4237 24.3996 24.0494 24.2492 24.0099 24.2492C23.9941 24.2492 23.9335 24.2281 23.8755 24.1991C23.8149 24.1727 23.6963 24.12 23.6093 24.083C23.5224 24.0461 23.3458 23.9591 23.2141 23.8905C23.0849 23.8219 22.8741 23.7243 22.7502 23.6716C22.5605 23.5924 22.4867 23.5397 22.2917 23.3577L22.0572 23.1388L22.1599 23.0359C22.2179 22.9779 22.2759 22.9304 22.2917 22.9304C22.326 22.9304 22.4656 22.7827 22.4604 22.7537C22.4577 22.7405 22.4577 22.6877 22.4604 22.635L22.463 22.5374L22.5631 22.5928C22.6158 22.6244 22.6975 22.6824 22.7423 22.7194C22.8425 22.8064 23.019 22.8935 23.1903 22.9409C23.2615 22.962 23.3564 22.9884 23.3985 23.0042C23.6252 23.0834 23.778 23.1203 23.836 23.1097C23.8966 23.1018 23.8992 23.0939 23.8992 22.9225C23.8992 22.8222 23.894 22.7326 23.8861 22.722C23.8623 22.6904 23.6093 22.5901 23.5145 22.5743C23.3485 22.5479 22.6027 22.1364 22.1257 21.8094C21.3219 21.2555 20.9767 20.9574 20.5919 20.4774C20.4681 20.3244 20.3547 20.1872 20.3389 20.174C20.3231 20.1582 20.2467 20.0527 20.1703 19.9366C20.0938 19.8206 19.9858 19.6755 19.9305 19.6149C19.8725 19.5515 19.8277 19.4935 19.8277 19.483C19.8277 19.4698 19.7618 19.3907 19.6801 19.3036C19.4851 19.0926 19.0951 18.5914 19.0924 18.5466C19.0898 18.536 19.1214 18.5387 19.1636 18.5572C19.2031 18.573 19.3718 18.602 19.5378 18.6205C19.7038 18.6389 19.8857 18.6627 19.941 18.6732C20.0174 18.6864 20.0728 18.6732 20.1808 18.6231C20.2599 18.5862 20.331 18.544 20.3389 18.5281C20.3653 18.4886 20.281 18.3409 20.2362 18.3409C20.2151 18.3409 20.1966 18.3303 20.1966 18.3145C20.1966 18.2696 20.1044 18.238 19.8646 18.209C19.7354 18.1932 19.5114 18.143 19.3665 18.0982C18.2992 17.7711 18.4494 17.845 17.759 17.3122C17.3558 17.0009 16.6758 16.36 16.407 16.0356C16.3253 15.9353 16.2437 15.8404 16.2278 15.8245C16.2147 15.8087 16.1488 15.7243 16.0882 15.6373C16.0249 15.5502 15.9406 15.4421 15.9011 15.3999C15.8615 15.355 15.7561 15.1968 15.6665 15.0464C15.4715 14.7194 15.1131 14.1971 15.0024 14.0784C14.9761 14.0494 14.9524 14.0151 14.9524 14.0019C14.9524 13.9887 14.8496 13.8753 14.7231 13.7513C14.594 13.6274 14.4569 13.4823 14.4174 13.4269C14.3779 13.3742 14.3225 13.3293 14.2962 13.3293C14.2724 13.3293 14.2276 13.3135 14.2013 13.2924C14.1565 13.2581 14.1591 13.2555 14.2461 13.2133C14.2988 13.1869 14.3489 13.15 14.3568 13.1289C14.3647 13.1078 14.4016 13.0787 14.4385 13.0656C14.4754 13.0524 14.5175 13.0102 14.5307 12.9706C14.5544 12.9126 14.5465 12.8888 14.4727 12.8044C14.3568 12.6725 14.196 12.5829 14.0643 12.5749C13.8666 12.5618 13.192 12.1292 12.9469 11.8549C12.4725 11.3326 11.8928 10.4121 11.7056 9.88718C11.4948 9.30162 11.392 8.27293 11.5159 7.97751C11.537 7.93004 11.5528 7.85091 11.5528 7.80343C11.5528 7.75331 11.5765 7.65836 11.6081 7.58714C11.6398 7.51065 11.6556 7.43152 11.6477 7.38668C11.6398 7.34712 11.6371 7.31546 11.6398 7.31546C11.6424 7.31546 11.7373 7.33393 11.8506 7.35503ZM19.7618 9.56011C19.9753 9.59967 20.0622 9.62077 20.3416 9.70254C20.8634 9.85553 21.0636 9.90828 21.3166 9.95312C21.4616 9.9795 21.6882 10.0296 21.8173 10.0665C22.1362 10.1562 22.3839 10.209 22.6211 10.2433C22.7292 10.2591 22.9611 10.3013 23.135 10.3356C23.3089 10.3699 23.5514 10.4121 23.6752 10.4279C23.7991 10.4437 24.0073 10.4727 24.1364 10.4938C24.7742 10.5941 25.3592 10.6284 25.7044 10.5888C26.3474 10.5123 27.6677 10.449 28.656 10.4516C28.8273 10.4516 29.8998 10.3118 30.0395 10.2696C30.1397 10.2406 31.0383 10.2195 31.0857 10.2459C31.1463 10.2802 32.298 10.325 32.3349 10.2934C32.3586 10.2749 32.3823 10.2828 32.4218 10.325C32.4535 10.3593 32.4772 10.3989 32.4772 10.4173C32.4772 10.4358 32.4877 10.4543 32.5009 10.4595C32.5114 10.4622 32.5799 10.5677 32.6511 10.6917C32.7196 10.8156 32.8145 10.9633 32.8593 11.0214C32.9067 11.0794 32.9963 11.2086 33.0596 11.3115C33.1782 11.5041 33.2335 11.5726 33.4786 11.8338C33.6393 12.0079 33.9424 12.2215 34.0267 12.2215C34.0821 12.2215 34.285 12.0131 34.3219 11.9155C34.3377 11.876 34.3693 11.8601 34.4378 11.8575C34.5433 11.8522 34.6144 11.9103 34.7198 12.0817C34.7541 12.1371 34.8621 12.2716 34.9596 12.3798C35.1652 12.6066 35.7555 13.477 35.8161 13.6353C35.824 13.6643 35.8609 13.7223 35.8925 13.7645C35.9742 13.8727 36.0981 14.2024 36.1666 14.4978C36.2299 14.7589 36.2562 14.8381 36.3616 15.086C36.3985 15.1757 36.4539 15.355 36.4802 15.4816C36.5066 15.6109 36.5408 15.7454 36.5566 15.7823C36.5724 15.8193 36.6041 16.0092 36.6252 16.2044C36.6752 16.6211 36.7332 17.0616 36.7754 17.3386C36.7912 17.4467 36.8123 17.605 36.8228 17.6867C36.8333 17.7711 36.8544 17.8529 36.8729 17.8714C36.8966 17.8951 36.9045 18.0876 36.9019 18.6046C36.8992 19.8496 36.8412 20.6119 36.6831 21.5192C36.662 21.6353 36.6331 21.8595 36.6172 22.0204C36.6014 22.1787 36.5777 22.4002 36.5645 22.5084C36.5303 22.788 36.4776 23.4052 36.4644 23.6689C36.4407 24.149 36.4565 26.8605 36.4828 26.9713C36.496 27.0346 36.5092 27.1374 36.5092 27.2007C36.5092 27.4038 36.6515 28.0685 36.7938 28.546C36.8571 28.7517 36.8808 28.7992 36.9467 28.8361C36.9888 28.8598 37.0284 28.8809 37.0336 28.8836C37.0389 28.8888 37.0389 28.8968 37.031 28.9073C37.0231 28.9152 36.9098 28.902 36.7833 28.8809C36.6541 28.8572 36.3722 28.8335 36.1534 28.8255C35.9373 28.8176 35.6527 28.7992 35.521 28.7833C35.3918 28.7702 35.0598 28.7517 34.7831 28.7464C33.3416 28.7121 33.0016 28.6937 32.9779 28.6541C32.9647 28.633 32.9146 28.5591 32.8672 28.4906C32.6406 28.1714 31.8605 26.9845 31.7788 26.8394C31.7656 26.813 31.6734 26.6732 31.5785 26.5308C31.2623 26.0534 31.2702 26.0718 31.2544 25.8344C31.2359 25.5232 31.2886 25.4098 31.6022 25.1196C31.8289 24.9113 31.8579 24.8902 32.0819 24.8163C32.2953 24.7477 32.327 24.7425 32.4113 24.7741C32.4614 24.7926 32.5141 24.8005 32.5272 24.7899C32.5773 24.7609 32.7143 24.5367 32.7143 24.4866C32.7143 24.4233 32.5009 24.1622 32.3928 24.0962C32.3428 24.0646 32.2769 24.0118 32.2426 23.9749C32.2057 23.938 32.1557 23.9063 32.1267 23.9063C32.0977 23.9063 32.0134 23.872 31.9396 23.8298C31.7814 23.7401 31.3756 23.632 31.3018 23.661C31.2597 23.6768 31.2649 23.6637 31.3229 23.5872C31.3624 23.5397 31.4336 23.4474 31.481 23.3841C31.5285 23.3208 31.6128 23.2205 31.6681 23.1572C31.7814 23.0253 31.7894 22.9594 31.7077 22.8513C31.6418 22.7616 31.5943 22.7563 31.3782 22.8117C31.2966 22.8328 31.1595 22.8513 31.0752 22.8513C30.9909 22.8513 30.8696 22.8644 30.8037 22.8829C30.7115 22.9093 30.6773 22.9066 30.6535 22.8829C30.6325 22.8618 30.614 22.693 30.6008 22.3949C30.5903 22.147 30.5692 21.8648 30.5534 21.7698C30.5165 21.5509 30.3399 20.9785 30.2451 20.7701C30.224 20.7227 30.2029 20.6567 30.2003 20.6251C30.1924 20.575 30.0237 20.2189 29.7997 19.7889C29.7523 19.6913 29.7101 19.599 29.7101 19.5832C29.7101 19.4962 29.1909 18.842 28.8378 18.4886C28.7798 18.4332 28.735 18.3725 28.735 18.3541C28.735 18.3171 28.2607 17.8951 28.1605 17.8423C28.1289 17.8239 28.0762 17.8186 28.0472 17.8265C28.0077 17.8397 27.9892 17.8318 27.9787 17.787C27.9708 17.7579 27.9234 17.6472 27.8759 17.5469C27.8258 17.4441 27.7863 17.3438 27.7863 17.3227C27.7863 17.3016 27.7758 17.2647 27.7626 17.2383C27.7468 17.2146 27.7099 17.117 27.6809 17.022C27.6045 16.7926 27.3462 16.2756 27.1538 15.967C27.0669 15.8298 26.9483 15.6267 26.8877 15.5186C26.8271 15.4104 26.7559 15.2917 26.7296 15.2574C26.7006 15.2232 26.6795 15.173 26.6795 15.144C26.6795 15.0623 26.5846 14.9093 26.4423 14.7563C26.3712 14.6798 26.3105 14.6033 26.3105 14.5875C26.3105 14.5611 26.0813 14.2789 25.9943 14.1997C25.9706 14.1786 25.9311 14.1259 25.9047 14.0837C25.8784 14.0441 25.7782 13.9228 25.6807 13.8199C25.5858 13.7144 25.4593 13.5588 25.4014 13.4744C25.288 13.3029 24.8506 12.8545 24.6819 12.7332C24.6764 12.7292 24.6705 12.7249 24.6644 12.7204C24.6057 12.6777 24.5207 12.6158 24.4658 12.5776C24.4078 12.5327 24.2893 12.4431 24.2076 12.3745C24.1259 12.3059 24.0442 12.2479 24.0284 12.2479C24.0126 12.2479 23.9836 12.2321 23.9678 12.211C23.9519 12.1899 23.8834 12.1661 23.8202 12.1582C23.7569 12.1476 23.6173 12.0923 23.5145 12.0342C23.4117 11.9788 23.3037 11.9314 23.2773 11.9314C23.2509 11.9314 23.1745 11.8839 23.1086 11.8259C22.969 11.7045 22.8056 11.6148 22.7292 11.6148C22.7002 11.6148 22.6712 11.6043 22.6633 11.5911C22.6396 11.5542 22.2812 11.4408 22.0703 11.4012C21.899 11.3722 21.8674 11.3722 21.8015 11.4091C21.733 11.4487 21.7251 11.4487 21.6803 11.3986C21.6539 11.3695 21.5512 11.2825 21.4484 11.206C21.3483 11.1295 21.1401 10.9449 20.9872 10.7972C20.8344 10.6495 20.6578 10.4859 20.5946 10.4332C20.5313 10.3804 20.3943 10.2591 20.2889 10.1641C19.9568 9.8608 19.7881 9.72364 19.6353 9.62605C19.4772 9.52318 19.4482 9.48889 19.5457 9.51527C19.5773 9.52318 19.6748 9.54428 19.7618 9.56011ZM11.2814 10.2485C11.2945 10.267 11.3341 10.3593 11.3657 10.4543C11.4553 10.7075 11.6872 11.1559 11.9428 11.5595C12.2828 12.1028 12.3144 12.1397 12.5964 12.3745C12.9047 12.633 12.9653 12.6752 13.2868 12.8809C13.4186 12.968 13.5293 13.0471 13.5293 13.0576C13.5266 13.0708 13.466 13.1209 13.3922 13.1711C13.3185 13.2212 13.2526 13.2766 13.2473 13.295C13.2394 13.3135 13.3026 13.3926 13.3843 13.4718L13.5346 13.6168L13.524 13.9149C13.5161 14.1707 13.5056 14.2367 13.4397 14.3844C13.4002 14.4793 13.3527 14.5901 13.3369 14.6323C13.2947 14.7326 13.1788 14.8486 13.0549 14.9119C12.9996 14.9409 12.939 14.9805 12.9179 14.999C12.8968 15.0201 12.8019 15.0913 12.7071 15.1572C12.4725 15.3181 12.3276 15.3471 11.8032 15.3471C11.3876 15.3445 11.3788 15.3444 11.2234 15.2654C10.6436 14.9752 10.1482 14.5532 10.0085 14.2314C9.97161 14.1496 9.92681 14.0441 9.90573 14.0019C9.71863 13.6089 9.53152 13.1341 9.46036 12.8783C9.41556 12.7253 9.39712 12.269 9.42611 12.0632C9.463 11.7942 9.7318 11.2034 9.92154 10.9765C10.164 10.6838 10.33 10.5466 10.5935 10.4173C10.7359 10.3461 10.9019 10.2723 10.9599 10.2538C11.0969 10.209 11.2497 10.209 11.2814 10.2485ZM24.2761 10.2353C24.2497 10.2406 24.2076 10.2406 24.1838 10.2353C24.1575 10.2274 24.1786 10.2222 24.2286 10.2222C24.2787 10.2222 24.2998 10.2274 24.2761 10.2353ZM34.5643 11.3827C34.5485 11.3986 34.5248 11.4038 34.5143 11.3933C34.5037 11.3827 34.5116 11.3643 34.5327 11.3511C34.5828 11.3194 34.6039 11.3432 34.5643 11.3827ZM35.7713 12.9495C35.7713 12.9811 35.766 12.9811 35.7344 12.9548C35.7133 12.9363 35.7028 12.9126 35.7107 12.8994C35.7291 12.8704 35.7713 12.9047 35.7713 12.9495ZM36.0348 12.9732C36.0348 12.9943 36.0243 13.0128 36.0085 13.0128C35.9953 13.0128 35.9821 12.9943 35.9821 12.9732C35.9821 12.9521 35.9953 12.9337 36.0085 12.9337C36.0243 12.9337 36.0348 12.9521 36.0348 12.9732ZM36.4301 14.0415C36.4301 14.0547 36.4249 14.0679 36.4196 14.0679C36.4117 14.0679 36.3985 14.0547 36.3906 14.0415C36.3827 14.0257 36.388 14.0151 36.4011 14.0151C36.417 14.0151 36.4301 14.0257 36.4301 14.0415ZM14.0379 14.0995C14.059 14.1338 14.2092 14.3079 14.3726 14.4899C14.5333 14.6719 14.7046 14.8723 14.7494 14.9383C14.7942 15.0042 14.9313 15.1862 15.0578 15.3471C15.1816 15.5054 15.3661 15.756 15.4636 15.901C15.6955 16.2413 16.1751 16.8348 16.4756 17.1566C17.0448 17.7606 17.6852 18.1984 18.2201 18.3514L18.3651 18.3936L18.4784 18.631C18.539 18.7603 18.5891 18.8737 18.5891 18.8816C18.5891 18.8895 18.6629 18.9897 18.7551 19.1058C18.8447 19.2192 18.9659 19.3854 19.0239 19.4724C19.2505 19.818 19.3006 19.8813 19.58 20.1608C19.7381 20.3217 19.8777 20.4721 19.8909 20.4985C19.9305 20.575 20.2282 20.873 20.3943 20.9996C20.4812 21.0656 20.7184 21.2818 20.924 21.477C21.3641 21.9043 21.3878 21.9228 21.6619 22.0758C21.8727 22.1892 21.8779 22.1945 21.8964 22.3105C21.9148 22.4398 21.9017 22.482 21.8411 22.482C21.82 22.482 21.7831 22.5268 21.7594 22.5796C21.7383 22.635 21.6487 22.7457 21.5643 22.8249C21.4168 22.9647 21.4115 22.9752 21.4273 23.0755C21.4379 23.1599 21.4642 23.1994 21.5591 23.2733C21.625 23.3234 21.733 23.4157 21.8042 23.479C21.9649 23.6267 22.1441 23.7481 22.3602 23.8641C22.4551 23.9142 22.6475 24.0303 22.7845 24.1226C23.2931 24.4602 23.5145 24.5895 23.583 24.5921C23.612 24.5921 23.7016 24.6158 23.7806 24.6449C23.8597 24.6739 24.002 24.7108 24.0969 24.724C24.1918 24.7398 24.3393 24.7741 24.4263 24.8005C24.5133 24.8295 24.6292 24.8585 24.6846 24.8691C24.8269 24.8928 24.7979 24.935 24.587 25.0168C24.4895 25.0537 24.3762 25.117 24.3393 25.1566C24.2734 25.2225 24.2708 25.2304 24.3077 25.2937C24.3314 25.3386 24.4052 25.386 24.5027 25.4256C24.6345 25.4784 24.6872 25.4863 24.8321 25.4731C24.9375 25.4625 25.0535 25.4704 25.1247 25.4889C25.1958 25.5074 25.4699 25.5232 25.823 25.5285C26.3975 25.5338 26.5477 25.5496 26.5477 25.5997C26.5477 25.6419 26.4423 25.7791 26.408 25.7791C26.3896 25.7791 26.3501 25.8213 26.3158 25.874C26.2473 25.9822 26.2552 26.0956 26.3316 26.0956C26.3553 26.0956 26.4133 26.114 26.4555 26.1378C26.5108 26.1694 26.6189 26.1853 26.8033 26.1905C27.0511 26.1984 27.0827 26.2064 27.2461 26.2934C27.3436 26.3435 27.4674 26.3936 27.5254 26.4015C27.6177 26.4174 27.6256 26.4226 27.5992 26.4754C27.5834 26.5044 27.5096 26.5941 27.4332 26.6706C27.3018 26.8074 27.2988 26.8104 27.3383 26.8816C27.3805 26.9554 27.5202 26.9924 27.5834 26.9449C27.6414 26.9001 27.984 26.8552 28.1684 26.8684C28.2661 26.8734 28.4687 26.8927 28.631 26.9082C28.6395 26.909 28.6478 26.9098 28.656 26.9106C28.9485 26.9396 28.9696 26.9475 29.2753 27.1005C29.4756 27.2007 29.6468 27.2667 29.7364 27.2799C29.8155 27.2931 29.971 27.3168 30.079 27.3353C30.2661 27.3643 30.2872 27.3616 30.4849 27.2983C30.7563 27.2087 30.8222 27.2087 30.8617 27.301C30.8802 27.3432 30.9408 27.446 30.9988 27.5331C31.0541 27.6201 31.1332 27.7494 31.1701 27.8232C31.2069 27.8945 31.2913 28.0369 31.3572 28.1398C31.423 28.24 31.5047 28.3771 31.5364 28.4404C31.568 28.5037 31.6128 28.5618 31.6365 28.5723C31.6576 28.5802 31.7156 28.633 31.763 28.6857C31.8605 28.7992 31.8895 28.7807 31.5285 28.8387C31.1622 28.8968 30.9619 28.9152 30.6852 28.9179C30.5323 28.9179 30.3268 28.931 30.224 28.9469C30.1238 28.9627 29.8313 28.9838 29.5783 28.997C29.3253 29.0075 28.9986 29.0313 28.8536 29.0445C28.3292 29.0999 27.0089 29.1368 25.6517 29.1368C24.45 29.1368 24.2471 29.1289 24.1022 29.0919C24.0126 29.0682 23.9098 29.0497 23.8782 29.055C23.8465 29.0577 23.5962 29.0524 23.3195 29.0418C22.6 29.0102 22.4287 29.0023 21.8832 28.9706C21.6144 28.9548 21.2824 28.939 21.1453 28.931C21.0083 28.9258 20.837 28.9099 20.7632 28.8941C20.3969 28.8229 19.7987 28.7913 18.5364 28.7702C17.5323 28.757 17.3847 28.7649 17.0211 28.8625C16.9631 28.8783 16.8155 28.902 16.6917 28.9179C16.5019 28.939 16.4255 28.9653 16.1778 29.0893C16.0197 29.1684 15.822 29.2713 15.7403 29.3188C15.6586 29.3663 15.4768 29.4718 15.3345 29.5509C15.1948 29.63 14.9892 29.7751 14.8786 29.8727C14.7679 29.9729 14.6677 30.0521 14.6572 30.0521C14.6467 30.0521 14.6071 30.0969 14.5702 30.1496C14.5333 30.205 14.4332 30.3316 14.3436 30.4345C14.2566 30.5347 14.1328 30.6956 14.0669 30.7906C13.9272 30.999 13.6321 31.5977 13.6242 31.6874C13.6215 31.7243 13.5925 31.8114 13.5609 31.8799C13.5293 31.9485 13.4845 32.0804 13.4608 32.1701C13.4186 32.3336 13.4186 32.3758 13.4634 33.0458C13.4818 33.2964 13.5635 33.6525 13.6163 33.7158C13.6373 33.7395 13.6953 33.8529 13.7427 33.969C13.8165 34.1483 13.8613 34.2116 14.0432 34.3936C14.1591 34.5123 14.2962 34.6284 14.3462 34.6548C14.3963 34.6811 14.4806 34.7339 14.5307 34.7735C14.6177 34.842 14.8021 34.9212 15.0051 34.9818C15.0894 35.0056 15.4162 35.0451 15.8273 35.0821C15.9301 35.0926 16.0223 35.0821 16.1093 35.053C16.1804 35.0293 16.2647 35.0108 16.2964 35.0108C16.3649 35.0108 16.6574 34.8605 16.8419 34.726C16.8867 34.6943 16.9341 34.668 16.9473 34.668C16.9763 34.668 17.3716 34.2644 17.4743 34.1272C17.6667 33.8767 17.8117 33.5311 17.8802 33.1777C17.8934 33.1038 17.9355 32.9139 17.9698 32.7557C18.0383 32.4444 18.1042 31.7586 18.0805 31.6083C18.0726 31.5582 18.0594 31.4764 18.0488 31.4289C18.0304 31.3498 18.033 31.3445 18.1042 31.3419C18.5021 31.334 18.9027 31.2944 18.9765 31.2575C19.0397 31.2232 19.132 31.2126 19.3507 31.2126C19.688 31.2126 19.6669 31.1968 19.775 31.5555C19.8092 31.6637 19.8514 31.8008 19.8725 31.8588C19.9858 32.1675 20.049 32.9561 19.9832 33.2436C19.9673 33.3096 19.9463 33.4151 19.9357 33.481C19.9252 33.5469 19.9094 33.6129 19.8988 33.6287C19.8885 33.6468 19.8329 33.8161 19.7688 34.0109C19.7674 34.0154 19.7659 34.0199 19.7644 34.0244C19.6037 34.5387 19.2874 35.1559 19.0634 35.3933C18.9976 35.4645 18.908 35.5648 18.8711 35.6149C18.7973 35.7045 18.4204 36.0026 18.2333 36.1187C18.1753 36.1556 18.062 36.2136 17.983 36.2532C17.9039 36.2901 17.7906 36.3534 17.7352 36.3903C17.6799 36.4299 17.614 36.4616 17.5903 36.4616C17.5666 36.4616 17.4823 36.5038 17.4032 36.5565C17.3241 36.6093 17.2108 36.6752 17.1528 36.7016C16.9842 36.7754 16.6416 36.8361 16.4993 36.8176C16.4176 36.8045 16.3596 36.8097 16.3359 36.8308C16.299 36.8625 16.2357 36.8598 15.6771 36.815C15.4504 36.7965 15.0551 36.6937 14.8338 36.5934C14.5149 36.4536 14.254 36.3165 14.0959 36.211C14.001 36.145 13.9088 36.0923 13.893 36.0923C13.8771 36.0923 13.7796 36.029 13.6769 35.9499C13.0576 35.4777 12.744 35.1533 12.3803 34.6152C12.2907 34.4807 12.0272 33.8714 11.9507 33.6129C11.8032 33.117 11.7504 32.6079 11.8137 32.2176C11.8295 32.1094 11.8374 32.0013 11.8295 31.9775C11.8216 31.9538 11.8321 31.814 11.8532 31.6716C11.8717 31.5291 11.8901 31.3445 11.8928 31.2654C11.8954 31.1388 11.9349 30.9198 12.0561 30.3158C12.1273 29.9624 12.2854 29.3452 12.3302 29.2608C12.3487 29.2238 12.3803 29.121 12.404 29.0313C12.4435 28.8757 12.6886 28.1951 12.7387 28.1028C12.7835 28.0237 12.9522 27.6386 13.0655 27.3616C13.1287 27.2087 13.2183 26.9897 13.2658 26.8737C13.5108 26.2749 13.9773 24.9165 13.9773 24.8031C13.9773 24.7767 13.9878 24.7477 14.001 24.7398C14.0142 24.7319 14.0326 24.6792 14.0432 24.6264C14.0511 24.571 14.0774 24.4734 14.0985 24.4101C14.1196 24.3442 14.1565 24.1833 14.1749 24.054C14.2118 23.8325 14.2435 23.6716 14.3331 23.2997C14.3515 23.2205 14.3963 23.0306 14.4332 22.8776C14.5017 22.5849 14.6098 21.87 14.6704 21.3214C14.7178 20.902 14.7284 20.5196 14.7257 19.4355C14.7257 18.5202 14.6598 17.5865 14.5676 17.1592C14.5439 17.0537 14.5333 16.9376 14.5412 16.9007C14.5544 16.8559 14.5412 16.8057 14.5096 16.7504C14.4806 16.7029 14.4516 16.6079 14.4411 16.5393C14.4279 16.4259 14.3251 16.083 14.2698 15.9538C14.2566 15.9248 14.2329 15.8615 14.2171 15.8114C14.1697 15.661 13.9536 15.3313 13.7981 15.1704L13.6531 15.0227L13.7902 14.7589C13.8719 14.598 13.9246 14.4609 13.9246 14.4055C13.9246 14.2604 13.9562 14.0415 13.9773 14.0415C13.9878 14.0415 14.0142 14.0679 14.0379 14.0995ZM37.1074 17.8555C37.0995 17.8634 37.0758 17.8661 37.0573 17.8582C37.0363 17.8503 37.0442 17.8423 37.0732 17.8423C37.1021 17.8397 37.118 17.8476 37.1074 17.8555ZM30.3294 22.2182C30.3373 22.2314 30.3347 22.2446 30.3189 22.2446C30.3057 22.2446 30.2846 22.2314 30.2767 22.2182C30.2688 22.2024 30.2714 22.1918 30.2872 22.1918C30.3004 22.1918 30.3215 22.2024 30.3294 22.2182ZM17.8117 29.1922C17.8855 29.2291 18.004 29.303 18.0752 29.3531C18.6892 29.7777 19.0713 30.1233 19.2268 30.3949C19.2743 30.4741 19.3191 30.5427 19.3322 30.5479C19.3849 30.5717 19.3454 30.6323 19.269 30.6455C19.1372 30.6693 18.3256 30.6693 17.9698 30.6482C17.6694 30.6271 17.6483 30.6297 17.5218 30.6877C17.4243 30.7352 17.3874 30.7695 17.3821 30.8143C17.3768 30.8513 17.3531 30.9067 17.332 30.9383C17.3083 30.9752 17.3004 31.0227 17.311 31.057C17.3215 31.0887 17.3347 31.1572 17.3373 31.21C17.3768 31.7217 17.4137 32.0435 17.4427 32.1727C17.5323 32.5552 17.3399 33.4836 17.1133 33.7659C16.8867 34.0534 16.4571 34.3963 16.1356 34.5493C15.9669 34.6284 15.8905 34.6469 15.6296 34.6732C15.3529 34.6996 15.3055 34.697 15.1579 34.6548C14.8996 34.5783 14.7652 34.5018 14.5544 34.304C14.2066 33.9795 14.0959 33.6577 14.0142 32.7293C14.0063 32.6422 14.0168 32.4128 14.0405 32.2202C14.0774 31.9011 14.0906 31.8483 14.2013 31.6188C14.2672 31.4817 14.3199 31.3471 14.3199 31.3208C14.3199 31.2443 14.4964 30.8776 14.6177 30.7009C14.7784 30.4635 15.2027 29.9756 15.3292 29.8806C15.5796 29.696 15.7746 29.5773 16.1172 29.4085C16.3939 29.2713 16.5177 29.2238 16.6495 29.208C16.7417 29.1975 16.834 29.179 16.8524 29.1684C16.9104 29.1315 17.1766 29.1051 17.4295 29.113C17.643 29.1183 17.701 29.1315 17.8117 29.1922ZM19.3006 29.3425C19.3955 29.3584 19.5009 29.3821 19.5378 29.3979C19.5721 29.4111 19.9041 29.4348 20.2757 29.448C20.6446 29.4612 20.9846 29.485 21.0267 29.4981C21.1849 29.5483 22.6237 29.6248 23.7016 29.6406C24.1285 29.6485 24.9481 29.6617 25.5199 29.6749C26.7454 29.6986 26.9694 29.6986 27.8786 29.659C28.7324 29.6195 29.61 29.6406 29.7022 29.7012C29.7575 29.7382 29.7944 29.7382 29.9815 29.7118C30.1001 29.696 30.282 29.6828 30.3847 29.6828C30.4875 29.6828 30.6061 29.6722 30.6483 29.659C30.6904 29.6459 30.8327 29.6221 30.9619 29.6037C31.0936 29.5852 31.2834 29.5509 31.3835 29.5219C31.6629 29.4507 32.0898 29.3953 32.6037 29.3663C32.8593 29.3504 33.165 29.3267 33.2836 29.3135C33.7158 29.2608 34.6302 29.3056 35.376 29.419C35.4709 29.4322 35.6712 29.4639 35.824 29.4876C35.9769 29.5087 36.1403 29.5351 36.1877 29.543C36.2562 29.5535 36.272 29.5483 36.272 29.5113C36.272 29.4691 36.2931 29.4665 36.4908 29.4797C36.6093 29.4902 36.9493 29.5087 37.2471 29.5245C37.5449 29.5403 37.8348 29.5641 37.8927 29.5773C37.9507 29.5905 38.0746 29.6168 38.1694 29.6327C38.5674 29.6986 38.6912 29.7355 39.0786 29.8885C39.1524 29.9175 39.2631 29.9571 39.329 29.9729C39.5767 30.0362 39.6031 30.0573 40.0484 30.5163C40.1301 30.6033 40.1986 30.6798 40.1986 30.6904C40.1986 30.6983 40.2619 30.7721 40.3409 30.8513C40.4384 30.9541 40.5307 31.0913 40.6414 31.3102C40.7283 31.4817 40.8311 31.661 40.868 31.7111C40.9049 31.7613 40.9444 31.8457 40.9523 31.8958C40.9629 31.9485 40.9787 32.0092 40.9919 32.0329C41.0024 32.0567 41.0314 32.2334 41.0551 32.4259C41.0973 32.7583 41.092 32.9825 41.0419 33.0458C41.0314 33.059 40.984 33.1724 40.9339 33.2937C40.8206 33.5865 40.3488 34.3092 40.2619 34.3303C40.2434 34.3356 40.1011 34.4569 39.9456 34.602C39.6136 34.9133 39.1392 35.2139 38.8283 35.3142C38.7202 35.3485 38.5542 35.4118 38.4593 35.454C38.3645 35.4962 38.2327 35.5384 38.1668 35.5463C38.1009 35.5542 37.9375 35.599 37.8031 35.6412C37.4922 35.7415 36.8597 35.8523 36.4908 35.8681C35.0914 35.9314 34.8885 35.934 34.2955 35.9076C33.7026 35.8786 33.389 35.8391 32.7802 35.7098C32.6801 35.6887 32.5009 35.6597 32.3849 35.6465C32.269 35.6307 32.1214 35.6017 32.0555 35.5779C31.9896 35.5542 31.8948 35.5305 31.8447 35.5278C31.7946 35.5226 31.6866 35.5015 31.6075 35.483C31.4178 35.4381 30.7616 35.4355 30.3557 35.4803C30.1818 35.4988 29.9578 35.5199 29.855 35.5278C29.7549 35.5357 29.6284 35.5516 29.5783 35.5648C29.5283 35.5779 29.4044 35.5938 29.3016 35.6043C29.0908 35.6228 28.8299 35.6729 28.4715 35.7679C27.9629 35.8997 27.8232 35.9314 27.6809 35.9419C27.5491 35.9525 27.4279 35.971 27.0616 36.0395C26.9905 36.0527 26.7823 36.0817 26.6004 36.1055C26.0286 36.1767 25.852 36.2004 25.7308 36.2242C25.6649 36.2374 25.4989 36.2611 25.3618 36.2769C25.2248 36.2927 24.9349 36.3349 24.7162 36.3692C24.5001 36.4035 24.2497 36.4378 24.1628 36.4484C24.0758 36.4563 23.9519 36.4747 23.8861 36.4879C23.6989 36.5275 23.2589 36.5882 23.0559 36.6066C22.9558 36.6145 22.8293 36.633 22.7792 36.6462C22.6448 36.6805 22.405 36.6963 21.6329 36.7253C21.256 36.7411 20.7579 36.7649 20.526 36.7781C20.0569 36.8071 18.2465 36.815 17.8433 36.786L17.5824 36.7702L17.7247 36.7121C18.0199 36.5908 18.3941 36.3719 18.6312 36.182C18.705 36.1213 18.8131 36.0474 18.8684 36.0132C18.9264 35.9815 19.0529 35.8602 19.153 35.7468C19.2532 35.6333 19.3481 35.5384 19.3639 35.5384C19.3823 35.5384 19.4297 35.5015 19.4719 35.4592C19.5141 35.4144 19.5668 35.3801 19.5879 35.3801C19.6116 35.3801 19.6827 35.2878 19.7565 35.1612C19.8277 35.0425 19.9199 34.8842 19.9647 34.813C20.0095 34.7392 20.0622 34.6178 20.0833 34.5387C20.1044 34.4596 20.1676 34.2934 20.223 34.1694C20.2783 34.0455 20.3363 33.8951 20.3521 33.8371C20.3837 33.7078 20.4285 33.5338 20.4654 33.3755C20.4812 33.3096 20.505 33.1856 20.5155 33.0985C20.5287 33.0115 20.5445 32.8875 20.555 32.8242C20.5629 32.7609 20.5603 32.7029 20.5471 32.6923C20.5234 32.6765 20.4602 32.2835 20.4602 32.1437C20.4602 32.0989 20.4233 31.9644 20.3785 31.843C20.2968 31.6215 20.281 31.5661 20.223 31.3445C20.1782 31.1783 19.883 30.5717 19.746 30.3686C19.5035 30.0099 19.2426 29.6854 19.0503 29.5061C18.9422 29.4032 18.8526 29.3109 18.8526 29.3003C18.8526 29.2819 19.0134 29.295 19.3006 29.3425Z" fill="black"/>
<path d="M14.0379 14.0995C14.059 14.1338 14.2092 14.3079 14.3726 14.4899C14.5333 14.6719 14.7046 14.8723 14.7494 14.9383C14.7942 15.0042 14.9313 15.1862 15.0578 15.3471C15.1816 15.5054 15.3661 15.756 15.4636 15.901C15.6955 16.2413 16.1751 16.8348 16.4756 17.1566C17.0448 17.7606 17.6852 18.1984 18.2201 18.3514L18.3651 18.3936L18.4784 18.631C18.539 18.7603 18.5891 18.8737 18.5891 18.8816C18.5891 18.8895 18.6629 18.9897 18.7551 19.1058C18.8447 19.2192 18.9659 19.3854 19.0239 19.4724C19.2505 19.818 19.3006 19.8813 19.58 20.1608C19.7381 20.3217 19.8777 20.4721 19.8909 20.4985C19.9305 20.575 20.2282 20.873 20.3943 20.9996C20.4812 21.0656 20.7184 21.2818 20.924 21.477C21.3641 21.9043 21.3878 21.9228 21.6619 22.0758C21.8727 22.1892 21.8779 22.1945 21.8964 22.3105C21.9148 22.4398 21.9017 22.482 21.8411 22.482C21.82 22.482 21.7831 22.5268 21.7594 22.5796C21.7383 22.635 21.6487 22.7457 21.5643 22.8249C21.4168 22.9647 21.4115 22.9752 21.4273 23.0755C21.4379 23.1599 21.4642 23.1994 21.5591 23.2733C21.625 23.3234 21.733 23.4157 21.8042 23.479C21.9649 23.6267 22.1441 23.7481 22.3602 23.8641C22.4551 23.9142 22.6475 24.0303 22.7845 24.1226C23.2931 24.4602 23.5145 24.5895 23.583 24.5921C23.612 24.5921 23.7016 24.6158 23.7806 24.6449C23.8597 24.6739 24.002 24.7108 24.0969 24.724C24.1918 24.7398 24.3393 24.7741 24.4263 24.8005C24.5133 24.8295 24.6292 24.8585 24.6846 24.8691C24.8269 24.8928 24.7979 24.935 24.587 25.0168C24.4895 25.0537 24.3762 25.117 24.3393 25.1566C24.2734 25.2225 24.2708 25.2304 24.3077 25.2937C24.3314 25.3386 24.4052 25.386 24.5027 25.4256C24.6345 25.4784 24.6872 25.4863 24.8321 25.4731C24.9375 25.4625 25.0535 25.4704 25.1247 25.4889C25.1958 25.5074 25.4699 25.5232 25.823 25.5285C26.3975 25.5338 26.5477 25.5496 26.5477 25.5997C26.5477 25.6419 26.4423 25.7791 26.408 25.7791C26.3896 25.7791 26.3501 25.8213 26.3158 25.874C26.2473 25.9822 26.2552 26.0956 26.3316 26.0956C26.3553 26.0956 26.4133 26.114 26.4555 26.1378C26.5108 26.1694 26.6189 26.1853 26.8033 26.1905C27.0511 26.1984 27.0827 26.2064 27.2461 26.2934C27.3436 26.3435 27.4674 26.3936 27.5254 26.4015C27.6177 26.4174 27.6256 26.4226 27.5992 26.4754C27.5834 26.5044 27.5096 26.5941 27.4332 26.6706C27.3018 26.8074 27.2988 26.8104 27.3383 26.8816C27.3805 26.9554 27.5202 26.9924 27.5834 26.9449C27.6414 26.9001 27.984 26.8552 28.1684 26.8684C28.2661 26.8734 28.4687 26.8927 28.631 26.9082L28.656 26.9106C28.9485 26.9396 28.9696 26.9475 29.2753 27.1005C29.4756 27.2007 29.6468 27.2667 29.7364 27.2799C29.8155 27.2931 29.971 27.3168 30.079 27.3353C30.2661 27.3643 30.2872 27.3616 30.4849 27.2983C30.7563 27.2087 30.8222 27.2087 30.8617 27.301C30.8802 27.3432 30.9408 27.446 30.9988 27.5331C31.0541 27.6201 31.1332 27.7494 31.1701 27.8232C31.2069 27.8945 31.2913 28.0369 31.3572 28.1398C31.423 28.24 31.5047 28.3771 31.5364 28.4404C31.568 28.5037 31.6128 28.5618 31.6365 28.5723C31.6576 28.5802 31.7156 28.633 31.763 28.6857C31.8605 28.7992 31.8895 28.7807 31.5285 28.8387C31.1622 28.8968 30.9619 28.9152 30.6852 28.9179C30.5323 28.9179 30.3268 28.931 30.224 28.9469C30.1238 28.9627 29.8313 28.9838 29.5783 28.997C29.3253 29.0075 28.9986 29.0313 28.8536 29.0445C28.3292 29.0999 27.0089 29.1368 25.6517 29.1368C24.45 29.1368 24.2471 29.1289 24.1022 29.0919C24.0126 29.0682 23.9098 29.0497 23.8782 29.055C23.8465 29.0577 23.5962 29.0524 23.3195 29.0418C22.6 29.0102 22.4287 29.0023 21.8832 28.9706C21.6144 28.9548 21.2824 28.939 21.1453 28.931C21.0083 28.9258 20.837 28.9099 20.7632 28.8941C20.3969 28.8229 19.7987 28.7913 18.5364 28.7702C17.5323 28.757 17.3847 28.7649 17.0211 28.8625C16.9631 28.8783 16.8155 28.902 16.6917 28.9179C16.5019 28.939 16.4255 28.9653 16.1778 29.0893C16.0197 29.1684 15.822 29.2713 15.7403 29.3188C15.6586 29.3663 15.4768 29.4718 15.3345 29.5509C15.1948 29.63 14.9892 29.7751 14.8786 29.8727C14.7679 29.9729 14.6677 30.0521 14.6572 30.0521C14.6467 30.0521 14.6071 30.0969 14.5702 30.1496C14.5333 30.205 14.4332 30.3316 14.3436 30.4345C14.2566 30.5347 14.1328 30.6956 14.0669 30.7906C13.9272 30.999 13.6321 31.5977 13.6242 31.6874C13.6215 31.7243 13.5925 31.8114 13.5609 31.8799C13.5293 31.9485 13.4845 32.0804 13.4608 32.1701C13.4186 32.3336 13.4186 32.3758 13.4634 33.0458C13.4818 33.2964 13.5635 33.6525 13.6163 33.7158C13.6373 33.7395 13.6953 33.8529 13.7427 33.969C13.8165 34.1483 13.8613 34.2116 14.0432 34.3936C14.1591 34.5123 14.2962 34.6284 14.3462 34.6548C14.3963 34.6811 14.4806 34.7339 14.5307 34.7735C14.6177 34.842 14.8021 34.9212 15.0051 34.9818C15.0894 35.0056 15.4162 35.0451 15.8273 35.0821C15.9301 35.0926 16.0223 35.0821 16.1093 35.053C16.1804 35.0293 16.2647 35.0108 16.2964 35.0108C16.3649 35.0108 16.6574 34.8605 16.8419 34.726C16.8867 34.6943 16.9341 34.668 16.9473 34.668C16.9763 34.668 17.3716 34.2644 17.4743 34.1272C17.6667 33.8767 17.8117 33.5311 17.8802 33.1777C17.8934 33.1038 17.9355 32.9139 17.9698 32.7557C18.0383 32.4444 18.1042 31.7586 18.0805 31.6083C18.0726 31.5582 18.0594 31.4764 18.0488 31.4289C18.0304 31.3498 18.033 31.3445 18.1042 31.3419C18.5021 31.334 18.9027 31.2944 18.9765 31.2575C19.0397 31.2232 19.132 31.2126 19.3507 31.2126C19.688 31.2126 19.6669 31.1968 19.775 31.5555C19.8092 31.6637 19.8514 31.8008 19.8725 31.8588C19.9858 32.1675 20.049 32.9561 19.9832 33.2436C19.9673 33.3096 19.9463 33.4151 19.9357 33.481C19.9252 33.5469 19.9094 33.6129 19.8988 33.6287C19.8885 33.6468 19.8329 33.8161 19.7688 34.0109L19.7644 34.0244C19.6037 34.5387 19.2874 35.1559 19.0634 35.3933C18.9976 35.4645 18.908 35.5648 18.8711 35.6149C18.7973 35.7045 18.4204 36.0026 18.2333 36.1187C18.1753 36.1556 18.062 36.2136 17.983 36.2532C17.9039 36.2901 17.7906 36.3534 17.7352 36.3903C17.6799 36.4299 17.614 36.4616 17.5903 36.4616C17.5666 36.4616 17.4823 36.5038 17.4032 36.5565C17.3241 36.6093 17.2108 36.6752 17.1528 36.7016C16.9842 36.7754 16.6416 36.8361 16.4993 36.8176C16.4176 36.8045 16.3596 36.8097 16.3359 36.8308C16.299 36.8625 16.2357 36.8598 15.6771 36.815C15.4504 36.7965 15.0551 36.6937 14.8338 36.5934C14.5149 36.4536 14.254 36.3165 14.0959 36.211C14.001 36.145 13.9088 36.0923 13.893 36.0923C13.8771 36.0923 13.7796 36.029 13.6769 35.9499C13.0576 35.4777 12.744 35.1533 12.3803 34.6152C12.2907 34.4807 12.0272 33.8714 11.9507 33.6129C11.8032 33.117 11.7504 32.6079 11.8137 32.2176C11.8295 32.1094 11.8374 32.0013 11.8295 31.9775C11.8216 31.9538 11.8321 31.814 11.8532 31.6716C11.8717 31.5291 11.8901 31.3445 11.8928 31.2654C11.8954 31.1388 11.9349 30.9198 12.0561 30.3158C12.1273 29.9624 12.2854 29.3452 12.3302 29.2608C12.3487 29.2238 12.3803 29.121 12.404 29.0313C12.4435 28.8757 12.6886 28.1951 12.7387 28.1028C12.7835 28.0237 12.9522 27.6386 13.0655 27.3616C13.1287 27.2087 13.2183 26.9897 13.2658 26.8737C13.5108 26.2749 13.9773 24.9165 13.9773 24.8031C13.9773 24.7767 13.9878 24.7477 14.001 24.7398C14.0142 24.7319 14.0326 24.6792 14.0432 24.6264C14.0511 24.571 14.0774 24.4734 14.0985 24.4101C14.1196 24.3442 14.1565 24.1833 14.1749 24.054C14.2118 23.8325 14.2435 23.6716 14.3331 23.2997C14.3515 23.2205 14.3963 23.0306 14.4332 22.8776C14.5017 22.5849 14.6098 21.87 14.6704 21.3214C14.7178 20.902 14.7284 20.5196 14.7257 19.4355C14.7257 18.5202 14.6598 17.5865 14.5676 17.1592C14.5439 17.0537 14.5333 16.9376 14.5412 16.9007C14.5544 16.8559 14.5412 16.8057 14.5096 16.7504C14.4806 16.7029 14.4516 16.6079 14.4411 16.5393C14.4279 16.4259 14.3251 16.083 14.2698 15.9538C14.2566 15.9248 14.2329 15.8615 14.2171 15.8114C14.1697 15.661 13.9536 15.3313 13.7981 15.1704L13.6531 15.0227L13.7902 14.7589C13.8719 14.598 13.9246 14.4609 13.9246 14.4055C13.9246 14.2604 13.9562 14.0415 13.9773 14.0415C13.9878 14.0415 14.0142 14.0679 14.0379 14.0995Z" fill="#E5D9A7"/>
<path d="M17.8117 29.1922C17.8855 29.2291 18.004 29.303 18.0752 29.3531C18.6892 29.7777 19.0713 30.1233 19.2268 30.3949C19.2743 30.4741 19.3191 30.5427 19.3322 30.5479C19.3849 30.5717 19.3454 30.6323 19.269 30.6455C19.1372 30.6693 18.3256 30.6693 17.9698 30.6482C17.6694 30.6271 17.6483 30.6297 17.5218 30.6877C17.4243 30.7352 17.3874 30.7695 17.3821 30.8143C17.3768 30.8513 17.3531 30.9067 17.332 30.9383C17.3083 30.9752 17.3004 31.0227 17.311 31.057C17.3215 31.0887 17.3347 31.1572 17.3373 31.21C17.3768 31.7217 17.4137 32.0435 17.4427 32.1727C17.5323 32.5552 17.3399 33.4836 17.1133 33.7659C16.8867 34.0534 16.4571 34.3963 16.1356 34.5493C15.9669 34.6284 15.8905 34.6469 15.6296 34.6732C15.3529 34.6996 15.3055 34.697 15.1579 34.6548C14.8996 34.5783 14.7652 34.5018 14.5544 34.304C14.2066 33.9795 14.0959 33.6577 14.0142 32.7293C14.0063 32.6422 14.0168 32.4128 14.0405 32.2202C14.0774 31.9011 14.0906 31.8483 14.2013 31.6188C14.2672 31.4817 14.3199 31.3471 14.3199 31.3208C14.3199 31.2443 14.4964 30.8776 14.6177 30.7009C14.7784 30.4635 15.2027 29.9756 15.3292 29.8806C15.5796 29.696 15.7746 29.5773 16.1172 29.4085C16.3939 29.2713 16.5177 29.2238 16.6495 29.208C16.7417 29.1975 16.834 29.179 16.8524 29.1684C16.9104 29.1315 17.1766 29.1051 17.4295 29.113C17.643 29.1183 17.701 29.1315 17.8117 29.1922Z" fill="black"/>
<path d="M11.2814 10.2485C11.2945 10.267 11.3341 10.3593 11.3657 10.4543C11.4553 10.7075 11.6872 11.1559 11.9428 11.5595C12.2828 12.1028 12.3144 12.1397 12.5964 12.3745C12.9047 12.633 12.9653 12.6752 13.2868 12.8809C13.4186 12.968 13.5293 13.0471 13.5293 13.0576C13.5266 13.0708 13.466 13.1209 13.3922 13.1711C13.3185 13.2212 13.2526 13.2766 13.2473 13.295C13.2394 13.3135 13.3026 13.3926 13.3843 13.4718L13.5346 13.6168L13.524 13.9149C13.5161 14.1707 13.5056 14.2367 13.4397 14.3844C13.4002 14.4793 13.3527 14.5901 13.3369 14.6323C13.2947 14.7326 13.1788 14.8486 13.0549 14.9119C12.9996 14.9409 12.939 14.9805 12.9179 14.999C12.8968 15.0201 12.8019 15.0913 12.7071 15.1572C12.4725 15.3181 12.3276 15.3471 11.8032 15.3471C11.3876 15.3445 11.3788 15.3444 11.2234 15.2654C10.6436 14.9752 10.1482 14.5532 10.0085 14.2314C9.97161 14.1496 9.92681 14.0441 9.90573 14.0019C9.71863 13.6089 9.53152 13.1341 9.46036 12.8783C9.41556 12.7253 9.39712 12.269 9.42611 12.0632C9.463 11.7942 9.7318 11.2034 9.92154 10.9765C10.164 10.6838 10.33 10.5466 10.5935 10.4173C10.7359 10.3461 10.9019 10.2723 10.9599 10.2538C11.0969 10.209 11.2497 10.209 11.2814 10.2485Z" fill="#E5D9A7"/>
<path d="M19.3006 29.3425C19.3955 29.3584 19.5009 29.3821 19.5378 29.3979C19.5721 29.4111 19.9041 29.4348 20.2757 29.448C20.6446 29.4612 20.9846 29.485 21.0267 29.4981C21.1849 29.5483 22.6237 29.6248 23.7016 29.6406C24.1285 29.6485 24.9481 29.6617 25.5199 29.6749C26.7454 29.6986 26.9694 29.6986 27.8786 29.659C28.7324 29.6195 29.61 29.6406 29.7022 29.7012C29.7575 29.7382 29.7944 29.7382 29.9815 29.7118C30.1001 29.696 30.282 29.6828 30.3847 29.6828C30.4875 29.6828 30.6061 29.6722 30.6483 29.659C30.6904 29.6459 30.8327 29.6221 30.9619 29.6037C31.0936 29.5852 31.2834 29.5509 31.3835 29.5219C31.6629 29.4507 32.0898 29.3953 32.6037 29.3663C32.8593 29.3504 33.165 29.3267 33.2836 29.3135C33.7158 29.2608 34.6302 29.3056 35.376 29.419C35.4709 29.4322 35.6712 29.4639 35.824 29.4876C35.9769 29.5087 36.1403 29.5351 36.1877 29.543C36.2562 29.5535 36.272 29.5483 36.272 29.5113C36.272 29.4691 36.2931 29.4665 36.4908 29.4797C36.6093 29.4902 36.9493 29.5087 37.2471 29.5245C37.5449 29.5403 37.8348 29.5641 37.8927 29.5773C37.9507 29.5905 38.0746 29.6168 38.1694 29.6327C38.5674 29.6986 38.6912 29.7355 39.0786 29.8885C39.1524 29.9175 39.2631 29.9571 39.329 29.9729C39.5767 30.0362 39.6031 30.0573 40.0484 30.5163C40.1301 30.6033 40.1986 30.6798 40.1986 30.6904C40.1986 30.6983 40.2619 30.7721 40.3409 30.8513C40.4384 30.9541 40.5307 31.0913 40.6414 31.3102C40.7283 31.4817 40.8311 31.661 40.868 31.7111C40.9049 31.7613 40.9444 31.8457 40.9523 31.8958C40.9629 31.9485 40.9787 32.0092 40.9919 32.0329C41.0024 32.0567 41.0314 32.2334 41.0551 32.4259C41.0973 32.7583 41.092 32.9825 41.0419 33.0458C41.0314 33.059 40.984 33.1724 40.9339 33.2937C40.8206 33.5865 40.3488 34.3092 40.2619 34.3303C40.2434 34.3356 40.1011 34.4569 39.9456 34.602C39.6136 34.9133 39.1392 35.2139 38.8283 35.3142C38.7202 35.3485 38.5542 35.4118 38.4593 35.454C38.3645 35.4962 38.2327 35.5384 38.1668 35.5463C38.1009 35.5542 37.9375 35.599 37.8031 35.6412C37.4922 35.7415 36.8597 35.8523 36.4908 35.8681C35.0914 35.9314 34.8885 35.934 34.2955 35.9076C33.7026 35.8786 33.389 35.8391 32.7802 35.7098C32.6801 35.6887 32.5009 35.6597 32.3849 35.6465C32.269 35.6307 32.1214 35.6017 32.0555 35.5779C31.9896 35.5542 31.8948 35.5305 31.8447 35.5278C31.7946 35.5226 31.6866 35.5015 31.6075 35.483C31.4178 35.4381 30.7616 35.4355 30.3557 35.4803C30.1818 35.4988 29.9578 35.5199 29.855 35.5278C29.7549 35.5357 29.6284 35.5516 29.5783 35.5648C29.5283 35.5779 29.4044 35.5938 29.3016 35.6043C29.0908 35.6228 28.8299 35.6729 28.4715 35.7679C27.9629 35.8997 27.8232 35.9314 27.6809 35.9419C27.5491 35.9525 27.4279 35.971 27.0616 36.0395C26.9905 36.0527 26.7823 36.0817 26.6004 36.1055C26.0286 36.1767 25.852 36.2004 25.7308 36.2242C25.6649 36.2374 25.4989 36.2611 25.3618 36.2769C25.2248 36.2927 24.9349 36.3349 24.7162 36.3692C24.5001 36.4035 24.2497 36.4378 24.1628 36.4484C24.0758 36.4563 23.9519 36.4747 23.8861 36.4879C23.6989 36.5275 23.2589 36.5882 23.0559 36.6066C22.9558 36.6145 22.8293 36.633 22.7792 36.6462C22.6448 36.6805 22.405 36.6963 21.6329 36.7253C21.256 36.7411 20.7579 36.7649 20.526 36.7781C20.0569 36.8071 18.2465 36.815 17.8433 36.786L17.5824 36.7702L17.7247 36.7121C18.0199 36.5908 18.3941 36.3719 18.6312 36.182C18.705 36.1213 18.8131 36.0474 18.8684 36.0132C18.9264 35.9815 19.0529 35.8602 19.153 35.7468C19.2532 35.6333 19.3481 35.5384 19.3639 35.5384C19.3823 35.5384 19.4297 35.5015 19.4719 35.4592C19.5141 35.4144 19.5668 35.3801 19.5879 35.3801C19.6116 35.3801 19.6827 35.2878 19.7565 35.1612C19.8277 35.0425 19.9199 34.8842 19.9647 34.813C20.0095 34.7392 20.0622 34.6178 20.0833 34.5387C20.1044 34.4596 20.1676 34.2934 20.223 34.1694C20.2783 34.0455 20.3363 33.8951 20.3521 33.8371C20.3837 33.7078 20.4285 33.5338 20.4654 33.3755C20.4812 33.3096 20.505 33.1856 20.5155 33.0985C20.5287 33.0115 20.5445 32.8875 20.555 32.8242C20.5629 32.7609 20.5603 32.7029 20.5471 32.6923C20.5234 32.6765 20.4602 32.2835 20.4602 32.1437C20.4602 32.0989 20.4233 31.9644 20.3785 31.843C20.2968 31.6215 20.281 31.5661 20.223 31.3445C20.1782 31.1783 19.883 30.5717 19.746 30.3686C19.5035 30.0099 19.2426 29.6854 19.0503 29.5061C18.9422 29.4032 18.8526 29.3109 18.8526 29.3003C18.8526 29.2819 19.0134 29.295 19.3006 29.3425Z" fill="#E5D9A7"/>
<path d="M19.7618 9.56011C19.9753 9.59967 20.0622 9.62077 20.3416 9.70254C20.8634 9.85553 21.0636 9.90828 21.3166 9.95312C21.4616 9.9795 21.6882 10.0296 21.8173 10.0665C22.1362 10.1562 22.3839 10.209 22.6211 10.2433C22.7292 10.2591 22.9611 10.3013 23.135 10.3356C23.3089 10.3699 23.5514 10.4121 23.6752 10.4279C23.7991 10.4437 24.0073 10.4727 24.1364 10.4938C24.7742 10.5941 25.3592 10.6284 25.7044 10.5888C26.3474 10.5123 27.6677 10.449 28.656 10.4516C28.8273 10.4516 29.8998 10.3118 30.0395 10.2696C30.1397 10.2406 31.0383 10.2195 31.0857 10.2459C31.1463 10.2802 32.298 10.325 32.3349 10.2934C32.3586 10.2749 32.3823 10.2828 32.4218 10.325C32.4535 10.3593 32.4772 10.3989 32.4772 10.4173C32.4772 10.4358 32.4877 10.4543 32.5009 10.4595C32.5114 10.4622 32.5799 10.5677 32.6511 10.6917C32.7196 10.8156 32.8145 10.9633 32.8593 11.0214C32.9067 11.0794 32.9963 11.2086 33.0596 11.3115C33.1782 11.5041 33.2335 11.5726 33.4786 11.8338C33.6393 12.0079 33.9424 12.2215 34.0267 12.2215C34.0821 12.2215 34.285 12.0131 34.3219 11.9155C34.3377 11.876 34.3693 11.8601 34.4378 11.8575C34.5433 11.8522 34.6144 11.9103 34.7198 12.0817C34.7541 12.1371 34.8621 12.2716 34.9596 12.3798C35.1652 12.6066 35.7555 13.477 35.8161 13.6353C35.824 13.6643 35.8609 13.7223 35.8925 13.7645C35.9742 13.8727 36.0981 14.2024 36.1666 14.4978C36.2299 14.7589 36.2562 14.8381 36.3616 15.086C36.3985 15.1757 36.4539 15.355 36.4802 15.4816C36.5066 15.6109 36.5408 15.7454 36.5566 15.7823C36.5724 15.8193 36.6041 16.0092 36.6252 16.2044C36.6752 16.6211 36.7332 17.0616 36.7754 17.3386C36.7912 17.4467 36.8123 17.605 36.8228 17.6867C36.8333 17.7711 36.8544 17.8529 36.8729 17.8714C36.8966 17.8951 36.9045 18.0876 36.9019 18.6046C36.8992 19.8496 36.8412 20.6119 36.6831 21.5192C36.662 21.6353 36.6331 21.8595 36.6172 22.0204C36.6014 22.1787 36.5777 22.4002 36.5645 22.5084C36.5303 22.788 36.4776 23.4052 36.4644 23.6689C36.4407 24.149 36.4565 26.8605 36.4828 26.9713C36.496 27.0346 36.5092 27.1374 36.5092 27.2007C36.5092 27.4038 36.6515 28.0685 36.7938 28.546C36.8571 28.7517 36.8808 28.7992 36.9467 28.8361C36.9888 28.8598 37.0284 28.8809 37.0336 28.8836C37.0389 28.8888 37.0389 28.8968 37.031 28.9073C37.0231 28.9152 36.9098 28.902 36.7833 28.8809C36.6541 28.8572 36.3722 28.8335 36.1534 28.8255C35.9373 28.8176 35.6527 28.7992 35.521 28.7833C35.3918 28.7702 35.0598 28.7517 34.7831 28.7464C33.3416 28.7121 33.0016 28.6937 32.9779 28.6541C32.9647 28.633 32.9146 28.5591 32.8672 28.4906C32.6406 28.1714 31.8605 26.9845 31.7788 26.8394C31.7656 26.813 31.6734 26.6732 31.5785 26.5308C31.2623 26.0534 31.2702 26.0718 31.2544 25.8344C31.2359 25.5232 31.2886 25.4098 31.6022 25.1196C31.8289 24.9113 31.8579 24.8902 32.0819 24.8163C32.2953 24.7477 32.327 24.7425 32.4113 24.7741C32.4614 24.7926 32.5141 24.8005 32.5272 24.7899C32.5773 24.7609 32.7143 24.5367 32.7143 24.4866C32.7143 24.4233 32.5009 24.1622 32.3928 24.0962C32.3428 24.0646 32.2769 24.0118 32.2426 23.9749C32.2057 23.938 32.1557 23.9063 32.1267 23.9063C32.0977 23.9063 32.0134 23.872 31.9396 23.8298C31.7814 23.7401 31.3756 23.632 31.3018 23.661C31.2597 23.6768 31.2649 23.6637 31.3229 23.5872C31.3624 23.5397 31.4336 23.4474 31.481 23.3841C31.5285 23.3208 31.6128 23.2205 31.6681 23.1572C31.7814 23.0253 31.7894 22.9594 31.7077 22.8513C31.6418 22.7616 31.5943 22.7563 31.3782 22.8117C31.2966 22.8328 31.1595 22.8513 31.0752 22.8513C30.9909 22.8513 30.8696 22.8644 30.8037 22.8829C30.7115 22.9093 30.6773 22.9066 30.6535 22.8829C30.6325 22.8618 30.614 22.693 30.6008 22.3949C30.5903 22.147 30.5692 21.8648 30.5534 21.7698C30.5165 21.5509 30.3399 20.9785 30.2451 20.7701C30.224 20.7227 30.2029 20.6567 30.2003 20.6251C30.1924 20.575 30.0237 20.2189 29.7997 19.7889C29.7523 19.6913 29.7101 19.599 29.7101 19.5832C29.7101 19.4962 29.1909 18.842 28.8378 18.4886C28.7798 18.4332 28.735 18.3725 28.735 18.3541C28.735 18.3171 28.2607 17.8951 28.1605 17.8423C28.1289 17.8239 28.0762 17.8186 28.0472 17.8265C28.0077 17.8397 27.9892 17.8318 27.9787 17.787C27.9708 17.7579 27.9234 17.6472 27.8759 17.5469C27.8258 17.4441 27.7863 17.3438 27.7863 17.3227C27.7863 17.3016 27.7758 17.2647 27.7626 17.2383C27.7468 17.2146 27.7099 17.117 27.6809 17.022C27.6045 16.7926 27.3462 16.2756 27.1538 15.967C27.0669 15.8298 26.9483 15.6267 26.8877 15.5186C26.8271 15.4104 26.7559 15.2917 26.7296 15.2574C26.7006 15.2232 26.6795 15.173 26.6795 15.144C26.6795 15.0623 26.5846 14.9093 26.4423 14.7563C26.3712 14.6798 26.3105 14.6033 26.3105 14.5875C26.3105 14.5611 26.0813 14.2789 25.9943 14.1997C25.9706 14.1786 25.9311 14.1259 25.9047 14.0837C25.8784 14.0441 25.7782 13.9228 25.6807 13.8199C25.5858 13.7144 25.4593 13.5588 25.4014 13.4744C25.288 13.3029 24.8506 12.8545 24.6819 12.7332L24.6644 12.7204C24.6057 12.6777 24.5207 12.6158 24.4658 12.5776C24.4078 12.5327 24.2893 12.4431 24.2076 12.3745C24.1259 12.3059 24.0442 12.2479 24.0284 12.2479C24.0126 12.2479 23.9836 12.2321 23.9678 12.211C23.9519 12.1899 23.8834 12.1661 23.8202 12.1582C23.7569 12.1476 23.6173 12.0923 23.5145 12.0342C23.4117 11.9788 23.3037 11.9314 23.2773 11.9314C23.2509 11.9314 23.1745 11.8839 23.1086 11.8259C22.969 11.7045 22.8056 11.6148 22.7292 11.6148C22.7002 11.6148 22.6712 11.6043 22.6633 11.5911C22.6396 11.5542 22.2812 11.4408 22.0703 11.4012C21.899 11.3722 21.8674 11.3722 21.8015 11.4091C21.733 11.4487 21.7251 11.4487 21.6803 11.3986C21.6539 11.3695 21.5512 11.2825 21.4484 11.206C21.3483 11.1295 21.1401 10.9449 20.9872 10.7972C20.8344 10.6495 20.6578 10.4859 20.5946 10.4332C20.5313 10.3804 20.3943 10.2591 20.2889 10.1641C19.9568 9.8608 19.7881 9.72364 19.6353 9.62605C19.4772 9.52318 19.4482 9.48889 19.5457 9.51527C19.5773 9.52318 19.6748 9.54428 19.7618 9.56011Z" fill="#E5D9A7"/>
<path d="M11.8506 7.35503C11.9639 7.37613 12.1062 7.39459 12.1642 7.39459C12.2222 7.39459 12.4198 7.42361 12.6017 7.4579C12.7861 7.49219 13.1076 7.5423 13.3185 7.56604C13.5293 7.59242 13.8086 7.63462 13.9378 7.661C14.1565 7.70847 14.2171 7.7243 14.3594 7.77969C14.3884 7.79024 14.478 7.81398 14.5571 7.83244C14.6994 7.8641 14.9286 7.95378 15.2212 8.09093C15.4452 8.19644 15.7324 8.39426 15.9485 8.59209C16.1409 8.76617 16.2516 8.82157 16.3016 8.77145C16.3174 8.75562 16.3333 8.67122 16.3359 8.58154C16.3385 8.49449 16.3491 8.41273 16.3596 8.40482C16.3886 8.37316 16.3754 8.29403 16.3306 8.24919C16.2885 8.20699 16.2885 8.20699 16.3491 8.22545C16.386 8.236 16.5046 8.29667 16.6126 8.3547C16.7206 8.41537 16.8709 8.48658 16.942 8.51296C17.253 8.63165 17.9856 9.05104 18.2781 9.27788C18.3598 9.34118 18.5496 9.46252 18.6945 9.54692C18.8421 9.63396 19.0503 9.76848 19.1557 9.85289C19.2611 9.93466 19.4113 10.0454 19.4877 10.1008C19.5668 10.1562 19.6801 10.2459 19.7407 10.2987C19.8013 10.354 19.9146 10.4358 19.9937 10.4806C20.2335 10.6152 21.1743 11.512 21.3746 11.7942C21.4299 11.8733 21.5195 11.9868 21.5723 12.0448C21.6882 12.1767 21.7172 12.1635 21.7778 11.9498C21.8094 11.8496 21.8331 11.81 21.8727 11.8048C21.9359 11.7942 22.2311 11.9208 22.6896 12.1476C23.4934 12.5512 23.8861 12.8229 24.3341 13.2739C24.5317 13.4718 24.7373 13.6722 24.7952 13.7223C24.8532 13.7724 24.9323 13.8568 24.9692 13.907C25.0087 13.9597 25.0904 14.0547 25.1536 14.1206C25.2143 14.1866 25.2986 14.2868 25.3407 14.3448C25.3803 14.4028 25.4672 14.5163 25.5331 14.5954C25.7888 14.9066 26.0997 15.3972 26.1551 15.574C26.1709 15.6294 26.213 15.6874 26.2473 15.7058C26.2816 15.7243 26.3158 15.7586 26.3237 15.7823C26.3316 15.8061 26.3791 15.8958 26.4318 15.9828C26.7164 16.4523 27.2593 17.5601 27.3778 17.9083C27.4174 18.0243 27.4912 18.2143 27.5386 18.3356C27.5887 18.4543 27.6282 18.5862 27.6282 18.6284C27.6282 18.6758 27.6546 18.7312 27.7046 18.7787C27.8127 18.8895 28.0551 19.5806 28.034 19.7151C28.0261 19.7573 28.0472 19.8048 28.0894 19.8522C28.1605 19.9314 28.2264 19.9314 28.3186 19.8522C28.345 19.8285 28.3845 19.818 28.4083 19.8285C28.5084 19.8681 28.6481 19.5885 28.5769 19.4882C28.5664 19.4724 28.5374 19.3748 28.5137 19.272C28.4899 19.1664 28.4399 19.0108 28.403 18.9291C28.3371 18.7814 28.1816 18.391 28.1816 18.3725C28.1816 18.362 28.316 18.4833 28.4241 18.5914C28.54 18.7075 28.8194 19.0504 28.8958 19.1717C28.9342 19.2282 29.0101 19.3471 29.07 19.4409L29.075 19.4487C29.1356 19.5436 29.2436 19.7388 29.3148 19.8839C29.4439 20.1477 29.6864 20.8308 29.689 20.9363C29.689 20.968 29.7154 21.0735 29.7444 21.1763C29.7733 21.2766 29.805 21.4137 29.8155 21.4797C29.8471 21.6801 29.9209 22.0125 29.9763 22.1892C30.029 22.3686 30.1845 23.1124 30.1845 23.1941C30.1845 23.2759 30.2872 23.326 30.4533 23.326C30.5349 23.326 30.6087 23.3155 30.6166 23.3023C30.6245 23.2891 30.7115 23.2706 30.809 23.2627C30.9092 23.2522 31.0172 23.2337 31.0541 23.2205C31.091 23.2073 31.1806 23.1942 31.257 23.1862L31.3941 23.1757L31.3361 23.2575C31.3045 23.2997 31.2307 23.3867 31.1727 23.45C31.0857 23.5423 31.0462 23.5634 30.9724 23.5634C30.8986 23.5634 30.867 23.5819 30.8196 23.6426C30.7458 23.7454 30.7563 23.7982 30.8644 23.8615C30.9592 23.9169 31.0198 23.9274 31.344 23.9485C31.5943 23.967 31.6418 23.9881 31.6181 24.083C31.597 24.1674 31.6655 24.2413 31.7867 24.2624C31.8421 24.273 31.929 24.3204 31.9896 24.3705C32.0898 24.4602 32.0924 24.4655 32.045 24.5024C32.016 24.5235 31.9765 24.5394 31.958 24.5394C31.9 24.5394 31.763 24.6158 31.6418 24.7161C31.5812 24.7636 31.4916 24.8189 31.4441 24.8348C31.3387 24.8717 31.1595 25.0062 31.1595 25.0511C31.1595 25.0695 31.1253 25.1091 31.0831 25.1407C31.0357 25.175 31.0014 25.2304 30.9909 25.2858C30.983 25.3333 30.9592 25.394 30.9408 25.4203C30.9118 25.4625 30.8986 25.452 30.8169 25.328C30.7669 25.2515 30.7168 25.1671 30.7062 25.1407C30.6904 25.1012 30.4058 24.6554 30.2503 24.4233C30.2213 24.3811 30.1502 24.2756 30.0922 24.1859C30.0342 24.0962 29.9341 23.9538 29.8682 23.8694C29.8023 23.785 29.6732 23.6109 29.5783 23.4843C29.4835 23.355 29.299 23.1124 29.1699 22.9383C29.0381 22.7668 28.8905 22.5585 28.8404 22.4767C28.7904 22.3923 28.7324 22.3184 28.7087 22.3105C28.6771 22.3 28.3661 21.8648 28.1948 21.5905C28.1816 21.5667 28.1026 21.4586 28.0235 21.3478C27.8944 21.1737 27.3172 20.3217 27.0827 19.963C27.0353 19.8892 26.9641 19.7916 26.9246 19.7415C26.885 19.6913 26.8139 19.5938 26.7665 19.5252C26.6927 19.4091 26.5451 19.2139 26.3922 19.0267C26.2763 18.8842 26.1577 18.7207 26.1208 18.6442C26.0971 18.5994 25.9969 18.4859 25.8994 18.3883C25.7993 18.2907 25.6517 18.1246 25.5727 18.0217C25.4936 17.9188 25.3328 17.7316 25.2169 17.605C25.1009 17.4784 24.898 17.2542 24.7663 17.1091C24.6345 16.9614 24.4579 16.7846 24.3736 16.7134C24.2102 16.5789 24.1496 16.5182 23.4143 15.7771C23.1613 15.5186 22.9347 15.3023 22.9136 15.2944C22.8899 15.2865 22.8425 15.239 22.8082 15.1889C22.7766 15.1388 22.5763 14.9277 22.3708 14.7194C22.0782 14.4239 21.9939 14.3264 22.0044 14.2868C22.015 14.2472 21.9992 14.2261 21.9438 14.2024C21.9043 14.1866 21.7093 13.9993 21.5143 13.7856C21.3193 13.5746 21.0768 13.3399 20.974 13.2634C20.8739 13.1869 20.7316 13.0682 20.6578 13.0022C20.5866 12.9337 20.4628 12.8414 20.3837 12.7965C20.3047 12.7517 20.1861 12.6673 20.1176 12.6066C20.049 12.5459 19.941 12.4589 19.8777 12.4114C19.8145 12.3639 19.6801 12.2637 19.58 12.1872C19.4825 12.1107 19.3454 12.0158 19.2769 11.9762C19.211 11.934 19.1214 11.8681 19.0766 11.8285C19.0344 11.7889 18.9528 11.723 18.8948 11.6781C18.6497 11.4935 18.5074 11.3827 18.3756 11.2772C18.2966 11.2139 18.1938 11.1295 18.1437 11.0926C18.0936 11.053 17.9856 10.9686 17.9039 10.9027C17.8222 10.8367 17.7115 10.755 17.6588 10.718C17.6061 10.6811 17.5613 10.6442 17.5613 10.631C17.5613 10.6204 17.5455 10.6125 17.5297 10.6125C17.5112 10.6125 17.4058 10.5413 17.2978 10.4543C17.1897 10.3672 17.0342 10.267 16.9552 10.2274C16.6152 10.0665 15.851 9.59704 15.6507 9.42559C15.6217 9.40185 15.5453 9.35173 15.4794 9.31217C15.4135 9.27524 15.2501 9.14863 15.1157 9.02994C14.8443 8.78991 14.7916 8.77672 14.7099 8.92707C14.6836 8.97191 14.6625 9.01675 14.6625 9.02994C14.6625 9.04049 14.7257 9.09324 14.8021 9.14336C14.8759 9.19347 14.9813 9.27524 15.0314 9.32008C15.0808 9.36693 15.1713 9.43689 15.2294 9.48182L15.2317 9.48362C15.2923 9.52582 15.3556 9.58912 15.374 9.62605C15.4188 9.70518 15.6533 9.91092 15.8747 10.0613C15.9696 10.1246 16.1461 10.2564 16.27 10.3567C16.465 10.5149 16.6548 10.6495 17.029 10.9027C17.1449 10.9792 17.5191 11.2113 17.7089 11.3247C17.78 11.3669 17.9408 11.4882 18.0647 11.5911C18.1859 11.6966 18.3862 11.847 18.51 11.9261C19.1636 12.3507 19.2743 12.4404 20.0649 13.1974C21.2165 14.3 22.0782 15.2073 22.4524 15.7058C22.5236 15.8034 22.7423 16.0567 22.9426 16.2729C23.1403 16.4892 23.3959 16.7846 23.5118 16.9297C23.6278 17.0748 23.7912 17.27 23.8729 17.3649C23.9572 17.4599 24.0468 17.5707 24.0732 17.6155C24.118 17.6867 24.2313 17.8186 24.5475 18.1668C24.6134 18.2406 24.7478 18.4068 24.8479 18.5387C24.9481 18.6679 25.064 18.8183 25.1088 18.871C25.1536 18.9238 25.2274 19.0187 25.2696 19.0794C25.3144 19.1427 25.404 19.2588 25.4751 19.3379C25.5437 19.4197 25.6412 19.5436 25.6912 19.6175C25.7413 19.6913 25.8177 19.7995 25.8599 19.8575C25.9021 19.9155 26.1103 20.2189 26.3237 20.5301C26.5345 20.8414 26.8033 21.2159 26.9167 21.361C27.1275 21.6274 27.5149 22.1628 27.7257 22.482C27.7863 22.5769 27.8733 22.7009 27.9154 22.7589C27.955 22.817 28.0709 22.9937 28.1684 23.1546C28.2659 23.3128 28.4082 23.5397 28.482 23.6557C28.5529 23.7633 28.6486 23.9139 28.7063 24.0046L28.7192 24.025C28.7746 24.1121 28.8589 24.2307 28.9063 24.2888C28.9511 24.3468 29.0539 24.4945 29.1303 24.6185C29.2068 24.7425 29.3201 24.906 29.378 24.9851C29.4387 25.0616 29.4993 25.146 29.5124 25.1698C29.5283 25.1935 29.5704 25.2542 29.6126 25.3069C29.6521 25.3597 29.6837 25.4151 29.6837 25.4282C29.6837 25.4441 29.7075 25.4757 29.7391 25.5047C29.7707 25.5311 29.8129 25.5891 29.834 25.634C29.8577 25.6762 29.884 25.7184 29.8919 25.7263C29.8998 25.7342 29.942 25.8054 29.9815 25.8846C30.0527 26.0191 30.1476 26.18 30.3557 26.5044C30.4032 26.5756 30.477 26.6943 30.5244 26.7655C30.5692 26.8394 30.6035 26.9106 30.5982 26.9238C30.5797 26.9765 30.3716 27.0741 30.2398 27.09C30.1397 27.1005 30.0896 27.0952 30.0421 27.061C30.0053 27.0372 29.9578 27.0187 29.9394 27.0187C29.9183 27.0187 29.7523 26.9475 29.5704 26.8605C29.3886 26.7734 29.2173 26.7022 29.1883 26.7022C29.1593 26.7022 29.0065 26.66 28.8483 26.6073C28.6085 26.5281 28.5163 26.5097 28.2528 26.4991C28.0367 26.4886 27.9497 26.4754 27.9682 26.4569C28.013 26.4121 28.0024 26.3119 27.9444 26.2538C27.9154 26.2248 27.8917 26.1773 27.8917 26.1483C27.8917 26.0534 27.731 25.9953 27.2619 25.9188C27.1249 25.8977 26.9852 25.8687 26.9509 25.8555C26.8798 25.8292 26.8719 25.7474 26.9298 25.6472C27.0194 25.4889 27.0511 25.3966 27.0273 25.3597C27.0038 25.3203 26.9906 25.3201 25.7545 25.2968L25.7308 25.2964C25.4014 25.2911 25.2564 25.2621 25.2564 25.204C25.2564 25.1935 25.317 25.1434 25.3908 25.0959C25.5437 24.9904 25.57 24.9535 25.5516 24.8638C25.5358 24.7767 25.462 24.7345 25.2301 24.6844C24.9613 24.6238 24.7135 24.5446 24.5712 24.4734C24.4237 24.3996 24.0494 24.2492 24.0099 24.2492C23.9941 24.2492 23.9335 24.2281 23.8755 24.1991C23.8149 24.1727 23.6963 24.12 23.6093 24.083C23.5224 24.0461 23.3458 23.9591 23.2141 23.8905C23.0849 23.8219 22.8741 23.7243 22.7502 23.6716C22.5605 23.5924 22.4867 23.5397 22.2917 23.3577L22.0572 23.1388L22.1599 23.0359C22.2179 22.9779 22.2759 22.9304 22.2917 22.9304C22.326 22.9304 22.4656 22.7827 22.4604 22.7537C22.4577 22.7405 22.4577 22.6877 22.4604 22.635L22.463 22.5374L22.5631 22.5928C22.6158 22.6244 22.6975 22.6824 22.7423 22.7194C22.8425 22.8064 23.019 22.8935 23.1903 22.9409C23.2615 22.962 23.3564 22.9884 23.3985 23.0042C23.6252 23.0834 23.778 23.1203 23.836 23.1097C23.8966 23.1018 23.8992 23.0939 23.8992 22.9225C23.8992 22.8222 23.894 22.7326 23.8861 22.722C23.8623 22.6904 23.6093 22.5901 23.5145 22.5743C23.3485 22.5479 22.6027 22.1364 22.1257 21.8094C21.3219 21.2555 20.9767 20.9574 20.5919 20.4774C20.4681 20.3244 20.3547 20.1872 20.3389 20.174C20.3231 20.1582 20.2467 20.0527 20.1703 19.9366C20.0938 19.8206 19.9858 19.6755 19.9305 19.6149C19.8725 19.5515 19.8277 19.4935 19.8277 19.483C19.8277 19.4698 19.7618 19.3907 19.6801 19.3036C19.4851 19.0926 19.0951 18.5914 19.0924 18.5466C19.0898 18.536 19.1214 18.5387 19.1636 18.5572C19.2031 18.573 19.3718 18.602 19.5378 18.6205C19.7038 18.6389 19.8857 18.6627 19.941 18.6732C20.0174 18.6864 20.0728 18.6732 20.1808 18.6231C20.2599 18.5862 20.331 18.544 20.3389 18.5281C20.3653 18.4886 20.281 18.3409 20.2362 18.3409C20.2151 18.3409 20.1966 18.3303 20.1966 18.3145C20.1966 18.2696 20.1044 18.238 19.8646 18.209C19.7354 18.1932 19.5114 18.143 19.3665 18.0982C18.2992 17.7711 18.4494 17.845 17.759 17.3122C17.3558 17.0009 16.6758 16.36 16.407 16.0356C16.3253 15.9353 16.2437 15.8404 16.2278 15.8245C16.2147 15.8087 16.1488 15.7243 16.0882 15.6373C16.0249 15.5502 15.9406 15.4421 15.9011 15.3999C15.8615 15.355 15.7561 15.1968 15.6665 15.0464C15.4715 14.7194 15.1131 14.1971 15.0024 14.0784C14.9761 14.0494 14.9524 14.0151 14.9524 14.0019C14.9524 13.9887 14.8496 13.8753 14.7231 13.7513C14.594 13.6274 14.4569 13.4823 14.4174 13.4269C14.3779 13.3742 14.3225 13.3293 14.2962 13.3293C14.2724 13.3293 14.2276 13.3135 14.2013 13.2924C14.1565 13.2581 14.1591 13.2555 14.2461 13.2133C14.2988 13.1869 14.3489 13.15 14.3568 13.1289C14.3647 13.1078 14.4016 13.0787 14.4385 13.0656C14.4754 13.0524 14.5175 13.0102 14.5307 12.9706C14.5544 12.9126 14.5465 12.8888 14.4727 12.8044C14.3568 12.6725 14.196 12.5829 14.0643 12.5749C13.8666 12.5618 13.192 12.1292 12.9469 11.8549C12.4725 11.3326 11.8928 10.4121 11.7056 9.88718C11.4948 9.30162 11.392 8.27293 11.5159 7.97751C11.537 7.93004 11.5528 7.85091 11.5528 7.80343C11.5528 7.75331 11.5765 7.65836 11.6081 7.58714C11.6398 7.51065 11.6556 7.43152 11.6477 7.38668C11.6398 7.34712 11.6371 7.31546 11.6398 7.31546C11.6424 7.31546 11.7373 7.33393 11.8506 7.35503Z" fill="#F6F1E0"/>
</svg>
