<svg width="100%" height="100%" viewBox="0 0 40 40" fill="none" xmlns="http://www.w3.org/2000/svg">
<path d="M19.6091 0.750059C18.5377 0.928631 16.6806 1.57149 15.502 2.14292C8.18055 5.75006 4.53769 13.4286 6.60912 20.8572C7.10912 22.6429 7.60912 23.3929 9.50198 25.3215C10.752 26.6072 11.3948 27.1429 10.9306 26.5001C9.18055 24.0001 8.85912 23.3929 9.03769 22.9286C9.14484 22.6786 9.07341 22.5358 8.89484 22.6429C8.71627 22.7501 8.57341 22.5001 8.57341 22.0358C8.57341 21.6072 8.39484 20.5358 8.14484 19.6429C7.14484 15.8215 9.25198 10.2501 12.9306 6.8572C18.1806 2.03577 26.4663 1.42863 31.8591 5.50006C34.2877 7.32149 34.3591 7.1072 32.1806 4.42863C30.7877 2.71435 27.752 1.21435 24.6806 0.714346C22.3591 0.321489 22.252 0.321489 19.6091 0.750059Z" fill="white"/>
<path d="M30.8955 6.75008C32.6098 8.00008 34.6455 10.3929 34.4312 10.9287C34.3598 11.1429 34.7526 12.2501 35.3241 13.4287C36.3598 15.5715 36.6455 17.1429 36.0026 17.1429C35.8241 17.1429 35.6455 16.9644 35.6455 16.7501C35.6455 16.2144 34.1455 12.8215 33.9669 12.9644C33.8955 13.0715 34.0026 13.5001 34.1812 13.9644C34.8598 15.6429 35.0384 16.2501 35.0026 16.5001C34.9669 16.6429 35.0741 17.5001 35.2526 18.4644C35.6098 20.2501 35.1812 23.8929 34.6455 24.2501C34.4669 24.3572 33.9669 25.1787 33.5026 26.0358C33.0741 26.9287 31.8955 28.5001 30.8598 29.5715C25.1812 35.5715 15.9312 35.5001 9.53836 29.3929C4.25264 24.3572 3.21693 16.7501 6.85979 9.32151C7.57407 7.85723 8.1455 6.60723 8.1455 6.5358C8.1455 5.50008 3.71693 9.64294 2.6455 11.6787C2.32407 12.3215 1.82407 13.8215 1.53836 15.0715C-0.42593 23.4287 3.10978 32.1787 10.1098 36.2858C17.9669 40.8929 27.1098 39.8929 33.5026 33.7501C36.2526 31.0715 37.8598 28.3215 38.6812 24.9644C39.7884 20.1787 39.2526 16.3215 36.8955 12.6429C34.6455 9.07151 34.0026 8.32151 31.8598 6.96437C29.5026 5.46437 28.9312 5.32151 30.8955 6.75008Z" fill="white"/>
<path d="M32.6091 9.35727C33.3948 10.2858 34.0734 10.9644 34.1805 10.8573C34.2877 10.7858 33.6448 10.0001 32.8234 9.1787L31.252 7.6787L32.6091 9.35727Z" fill="white"/>
</svg>
